<svg width="61" height="61" viewBox="0 0 61 61" fill="none" xmlns="http://www.w3.org/2000/svg">
<g filter="url(#filter0_d_1265_485)">
<path d="M30.3504 57.7091C46.0079 57.7091 58.7008 45.0143 58.7008 29.3546C58.7008 13.6948 46.0079 1 30.3504 1C14.6929 1 2 13.6948 2 29.3546C2 45.0143 14.6929 57.7091 30.3504 57.7091Z" fill="white"/>
</g>
<g clip-path="url(#clip0_1265_485)">
<path d="M38.7037 34.6624H39.0962V38.7383H39.9048V33.876H38.995L38.7037 34.6624Z" fill="#231F20"/>
<path d="M40.8096 33.876L40.417 34.273V35.8783L40.8096 36.2753L40.417 36.6723V38.3426L40.8157 38.7396H42.4414L42.8339 38.3426V36.6723L42.4414 36.2753L42.8339 35.8783V34.273L42.4414 33.876H40.8096V33.876ZM42.0242 37.8495L41.9291 37.9456H41.3156L41.2206 37.8495V36.7684L41.3156 36.6723H41.9291L42.0242 36.7684V37.8495ZM42.0242 35.7897L41.9291 35.8858H41.3156L41.2206 35.7897V34.7598L41.3156 34.6699H41.9291L42.0242 34.7598V35.7897Z" fill="#231F20"/>
<path d="M43.6066 33.876L43.2141 34.273V35.3028H44.0053V34.7648L44.0992 34.6687H44.7139L44.8077 34.7648V35.7885L44.7139 35.8846H44.0053V36.671H44.7139L44.8077 36.7672V37.8482L44.7139 37.9444H44.0992L44.0053 37.8482V37.3114H43.2141V38.3413L43.6066 38.7383H45.2261L45.6174 38.3413V36.671L45.2261 36.2753L45.6174 35.8783V34.273L45.2261 33.876H43.6066Z" fill="#231F20"/>
<path d="M47.6048 35.9807H46.9333L46.8382 35.8846V33.876H46.0285V36.3714L46.421 36.7672H47.6048V38.7383H48.4071V33.876H47.6048V35.9807Z" fill="#231F20"/>
<path d="M15.8789 32.9596C16.0097 32.469 16.0208 32.0234 15.9332 31.6189C15.7147 30.6152 14.8729 29.7701 13.3879 28.7352L12.5485 28.1472C10.8649 26.9538 10.0946 26.0188 9.92549 25.2436C9.86748 24.9802 9.88723 24.7355 9.94648 24.5008C10.1329 23.8504 10.692 23.4846 11.3191 23.3448C11.6499 23.2712 11.9955 23.2674 12.3152 23.3074C13.2163 23.4197 14.1927 24.0514 14.2359 24.8354C14.2779 25.3609 13.8125 25.9077 13.4052 25.6293C13.3805 25.5981 13.3743 25.6543 13.3435 25.6805C13.3064 25.7629 13.2731 25.8627 13.2966 25.9676C13.325 26.1823 13.4509 26.5056 13.9533 26.633C14.1248 26.6679 14.289 26.6692 14.4631 26.6305C15.2642 26.452 15.9863 25.497 16.1048 24.6206C16.1381 24.3547 16.1332 24.0788 16.0751 23.8154C15.8023 22.5658 14.505 21.471 12.4757 21.536C12.077 21.5509 11.7215 21.5934 11.3734 21.6708C9.7033 22.044 8.60471 23.1189 8.18132 24.5245C8.01962 25.0401 8.01715 25.6131 8.14429 26.1936C8.42449 27.4781 9.38113 28.8526 10.9476 29.9236L11.9326 30.5903C12.751 31.1645 13.6508 31.9422 13.8348 32.7861C13.8841 33.0146 13.8829 33.2555 13.8064 33.4939C13.6027 34.1481 12.8152 34.6387 11.9276 34.8359C11.4401 34.9445 10.934 34.9657 10.46 34.8871C9.40088 34.7173 8.53188 34.0807 8.47634 33.243C8.42202 32.5726 8.99601 31.946 9.47988 31.9859L9.49716 31.9822C9.51074 31.961 9.51321 31.8861 9.42927 31.7575C9.28485 31.5128 8.89109 31.2132 8.32945 31.3193C7.39749 31.4741 6.36556 32.3504 6.43345 33.831C6.48776 35.3328 8.08381 36.5449 10.2415 36.5624C10.734 36.5624 11.2327 36.5075 11.703 36.4026C13.8261 35.9282 15.4962 34.4664 15.8801 32.9609" fill="#231F20"/>
<path d="M53.7137 26.1108C53.4644 24.8649 52.1386 24.0148 50.6944 24.1708C49.7242 24.2769 48.2232 24.9947 47.9479 25.1308C47.8875 25.1246 47.8097 25.0859 47.7764 24.9286C47.7035 24.5953 47.8368 23.9673 47.9665 23.3594C48.0911 22.7752 48.2195 22.171 48.1775 21.774C48.1393 21.3271 47.9665 20.9638 47.6887 20.7528C47.4505 20.5718 47.1542 20.5094 46.8321 20.5731C46.2803 20.6717 45.8742 21.035 45.6137 21.357L45.6384 21.221C45.6532 21.1436 45.6298 21.0687 45.5742 21.0137C45.5125 20.9526 45.4101 20.9201 45.3311 20.9388L44.5065 21.1223C44.3349 21.161 44.2436 21.2522 44.23 21.392L43.5807 24.3993C43.3734 25.1408 42.8796 26.5751 42.1735 26.4054C42.1328 26.3979 42.0995 26.3742 42.0723 26.333C42.0192 26.2531 41.9476 26.0409 42.0563 25.5178L42.8129 21.8114C42.8204 21.7415 42.8302 21.6454 42.7623 21.583C42.7339 21.5568 42.6821 21.5293 42.5982 21.548L41.5724 21.7765C41.4662 21.8002 41.3946 21.8863 41.3712 21.9562C41.2416 21.8738 41.0231 21.8077 40.6725 21.8851C39.3641 22.161 38.2396 23.9049 37.8051 25.4853C37.7039 25.8449 37.6261 26.3155 37.6088 26.7874C37.3706 27.288 37.0682 27.6512 36.6942 27.6512C36.6769 27.6512 36.6596 27.6512 36.6423 27.6487C36.5892 27.645 36.551 27.6275 36.5213 27.5926C36.472 27.5351 36.4189 27.3991 36.446 27.0745C36.4683 26.7287 36.5608 26.278 36.6509 25.8436C36.7744 25.2494 36.8904 24.6876 36.8596 24.2969C36.8201 23.84 36.6435 23.473 36.3646 23.2608C36.1276 23.081 35.8313 23.0198 35.5104 23.0835C34.8537 23.2146 34.3957 23.6815 34.1044 24.1047C33.8563 23.7277 33.4465 23.5591 32.9972 23.659C32.4578 23.7676 32.0949 24.041 31.785 24.4317L31.7986 24.3606C31.8258 24.2507 31.8048 24.1446 31.7406 24.0784C31.6863 24.021 31.6073 23.9998 31.5271 24.0173L30.7037 24.2008C30.5766 24.2295 30.4556 24.2807 30.4396 24.4517L29.7249 27.6712C29.6903 27.7711 29.6582 27.8672 29.6261 27.9633C29.5212 28.2841 29.4212 28.5875 29.2299 28.8908C29.0151 29.2566 28.5436 29.8958 27.798 30.0618C27.5018 30.128 27.2709 30.1067 27.1117 29.9981C26.9698 29.902 26.8759 29.7285 26.8352 29.4876L26.8241 29.4002C27.9264 28.7385 29.7064 26.8048 29.3694 25.2619C29.3027 24.9573 29.1398 24.755 28.8843 24.6614C28.6843 24.5878 28.4313 24.584 28.1325 24.6514C27.2438 24.8487 26.3328 25.6214 25.6922 26.7175C25.254 27.4677 24.996 28.2704 24.9466 28.9945C24.9454 28.9995 24.9429 29.0044 24.9417 29.0082C24.8368 29.329 24.7368 29.6324 24.5454 29.9357C24.3307 30.3015 23.8591 30.9406 23.1136 31.1067C22.8173 31.1728 22.5865 31.1516 22.4273 31.043C22.2853 30.9469 22.1915 30.7734 22.1508 30.5324L22.1396 30.4463C23.2419 29.7847 25.0219 27.851 24.6849 26.308C24.5664 25.7625 24.127 25.5453 23.4481 25.6976C21.8224 26.0608 20.3251 28.2629 20.2535 30.133C20.1696 30.3976 20.0548 30.6885 19.877 30.9968C19.4598 31.7745 19.0414 32.1291 18.634 32.0542C18.4637 32.0255 18.3452 31.8482 18.2711 31.5099C18.2254 31.3027 18.2045 31.0393 18.202 30.7309C18.9525 29.6461 20.3263 27.2368 20.8707 25.7974C21.3719 24.448 21.7817 22.4518 21.5545 21.4095C21.4336 20.8527 21.1596 20.7054 20.9534 20.6792C19.8832 20.5394 18.1069 23.468 17.1441 26.9509C16.5788 29.0157 16.4084 30.7996 16.6652 31.973C16.8491 32.8182 17.2404 33.315 17.7922 33.4111C17.9057 33.4336 18.0218 33.4448 18.1415 33.4448C18.2946 33.4448 18.455 33.4261 18.6229 33.3887C19.424 33.2101 20.1893 32.6297 20.7189 31.8145C21.0633 32.2489 21.578 32.4811 22.2211 32.4811C22.4408 32.4811 22.6766 32.4536 22.9247 32.3987C23.9875 32.1615 24.8725 31.5723 25.3972 30.7634C25.5552 30.9656 25.7514 31.1254 25.9822 31.2365C26.2526 31.3676 26.5686 31.4337 26.9142 31.4337C27.1352 31.4337 27.3672 31.4075 27.6079 31.3526C28.1696 31.2278 28.6806 31.0031 29.1163 30.701C29.1213 30.7072 29.125 30.7147 29.1299 30.7209C29.1645 30.7571 29.2114 30.7746 29.2682 30.7746C29.2916 30.7746 29.3163 30.7721 29.3435 30.7659L30.4704 30.5137C30.6445 30.475 30.6914 30.3901 30.7173 30.254L31.4147 27.3391C31.5048 26.9771 31.6517 26.4491 31.8381 25.9897C32.1652 25.2319 32.3899 25.1008 32.5318 25.1271C32.5405 25.1271 32.5652 25.1308 32.5936 25.172C32.6985 25.3206 32.733 25.7812 32.5973 26.3729L31.8159 29.8721C31.7937 29.9632 31.811 30.0481 31.864 30.103C31.8937 30.133 31.9603 30.1829 32.0751 30.1554L33.2169 29.9008C33.4268 29.8533 33.4576 29.6648 33.4687 29.5912C33.5144 29.3814 34.0748 26.7424 34.0748 26.7424L34.0822 26.7087C34.1637 26.328 34.2649 25.8536 34.4538 25.3842C34.6932 24.7251 34.9129 24.5216 35.0302 24.5478C35.0747 24.5578 35.2882 24.6689 35.0858 25.8361L34.8315 27.2443C34.7624 27.6662 34.7599 27.9983 34.8228 28.2866C34.9599 28.9146 35.3944 29.2966 35.9893 29.309C36.1424 29.3065 36.3016 29.3028 36.4732 29.2654C36.7374 29.2067 37.3508 29.0057 37.9322 28.3653C38.0359 28.5064 38.1618 28.6087 38.3099 28.6674C38.426 28.7098 38.5445 28.7311 38.6679 28.7311C38.7519 28.7311 38.8383 28.7211 38.9271 28.7011C39.5888 28.5538 40.2368 27.8909 40.5614 27.3541C40.6553 27.5638 40.812 27.7823 41.0404 27.9246C41.3169 28.0969 41.6489 28.1356 42.0304 28.0382C42.3797 27.9471 42.6809 27.7985 42.9438 27.6138C42.9487 27.6213 42.9549 27.6288 42.9598 27.6338C42.9845 27.66 43.0265 27.6862 43.0931 27.6862C43.1129 27.6862 43.1351 27.6837 43.1586 27.6787L44.3004 27.424C44.4744 27.3853 44.5213 27.3004 44.5472 27.1606L45.1768 24.2757C45.3076 23.6652 45.452 23.2683 45.6286 22.8625C45.8791 22.3058 46.1519 21.9974 46.3605 22.0349C46.3815 22.0374 46.4025 22.0549 46.4223 22.0848C46.5321 22.2471 46.5704 22.7102 46.4272 23.2807L46.0902 24.7213C46.0038 25.0971 45.9915 25.4366 46.0569 25.7313C46.1964 26.3692 46.6864 26.7874 47.3061 26.7961C47.3962 26.7949 47.5011 26.7861 47.611 26.7699V26.7774L47.7727 26.7412H47.7739C47.9381 26.7037 48.1319 26.6488 48.3121 26.5689C48.5133 26.4915 48.7305 26.3991 48.954 26.3043C49.7946 25.946 50.7463 25.5403 51.1771 25.8062C51.3203 25.8948 51.4005 26.0608 51.419 26.313C51.5252 27.7274 48.5836 28.2767 48.5503 28.2829L20.5547 34.2812C20.293 34.3287 14.742 35.3536 13.6089 37.1762C13.4089 37.4982 13.3534 37.8303 13.4459 38.1636C13.9298 39.9176 15.7518 40.1697 16.7578 40.1697C17.1565 40.1697 17.4268 40.1298 17.4367 40.1285L17.6095 40.1023L17.5169 39.9513C17.4861 39.9001 16.7713 38.6954 18.3081 37.6543C19.1957 37.0526 26.8883 35.3386 34.3279 33.6808C40.496 32.3063 46.8728 30.8845 49.6859 30.0331C53.8952 28.7573 53.8322 26.7075 53.7125 26.1108M28.372 25.5465C28.488 25.5203 28.5164 25.574 28.5312 25.6364C28.7065 26.4378 27.6079 27.6662 26.8907 28.2916C27.108 27.3641 27.7918 25.6763 28.3732 25.5465M23.69 26.5914C23.806 26.5664 23.8344 26.6188 23.848 26.6813C24.0233 27.4827 22.9247 28.7111 22.2075 29.3365C22.426 28.409 23.1086 26.7212 23.69 26.5914M20.5127 22.2846C20.5226 22.2846 20.535 22.2945 20.5473 22.3145C20.7448 22.6091 20.6411 24.0859 20.035 25.6426C19.6968 26.5377 18.9871 27.8385 18.3686 28.8646C18.4736 28.1755 18.6254 27.4066 18.8229 26.5851C19.5006 23.83 20.2831 22.322 20.5115 22.2858M41.0564 23.1771L40.4553 25.9772C40.3207 26.5926 39.8307 26.846 39.5394 26.8223C39.3555 26.8073 39.2728 26.6051 39.2357 26.4378C39.1641 26.1095 39.1987 25.6164 39.3369 25.011C39.6801 23.5778 40.4355 22.9175 40.8602 22.8226C40.8774 22.8189 40.8984 22.8164 40.9182 22.8164C40.9527 22.8164 40.9885 22.8251 41.0157 22.8513C41.0712 22.9062 41.0861 23.0248 41.0564 23.1784" fill="#231F20"/>
</g>
<defs>
<filter id="filter0_d_1265_485" x="0" y="0" width="60.7008" height="60.709" filterUnits="userSpaceOnUse" color-interpolation-filters="sRGB">
<feFlood flood-opacity="0" result="BackgroundImageFix"/>
<feColorMatrix in="SourceAlpha" type="matrix" values="0 0 0 0 0 0 0 0 0 0 0 0 0 0 0 0 0 0 127 0" result="hardAlpha"/>
<feOffset dy="1"/>
<feGaussianBlur stdDeviation="1"/>
<feColorMatrix type="matrix" values="0 0 0 0 0 0 0 0 0 0 0 0 0 0 0 0 0 0 0.5 0"/>
<feBlend mode="normal" in2="BackgroundImageFix" result="effect1_dropShadow_1265_485"/>
<feBlend mode="normal" in="SourceGraphic" in2="effect1_dropShadow_1265_485" result="shape"/>
</filter>
<clipPath id="clip0_1265_485">
<rect width="47.3197" height="19.6204" fill="white" transform="translate(6.42975 20.5498)"/>
</clipPath>
</defs>
</svg>
