<?xml version="1.0" encoding="utf-8"?>
<!-- Generator: Adobe Illustrator 26.0.1, SVG Export Plug-In . SVG Version: 6.00 Build 0)  -->
<svg version="1.1" id="Layer_1" xmlns="http://www.w3.org/2000/svg" xmlns:xlink="http://www.w3.org/1999/xlink" x="0px" y="0px"
	 viewBox="0 0 61 61" style="enable-background:new 0 0 61 61;" xml:space="preserve">
<style type="text/css">
	.st0{fill:#FFFFFF;}
</style>
<g>
	<path class="st0" d="M30.39,58.52c15.95,0,28.88-12.93,28.88-28.88c0-15.95-12.93-28.88-28.88-28.88
		c-15.95,0-28.88,12.93-28.88,28.88C1.51,45.59,14.44,58.52,30.39,58.52z"/>
</g>
<g>
	<g>
		<path d="M30.42,44.14c-8,0-14.51-6.51-14.51-14.51s6.51-14.51,14.51-14.51s14.51,6.51,14.51,14.51S38.42,44.14,30.42,44.14z
			 M30.42,16.76c-7.1,0-12.88,5.78-12.88,12.88s5.78,12.88,12.88,12.88s12.88-5.78,12.88-12.88S37.52,16.76,30.42,16.76z"/>
	</g>
	<g>
		<g>
			<path d="M9.49,24.97L9.49,24.97l0.72,0.08c0.03,0,0.05,0.02,0.07,0.04c0.02,0.02,0.02,0.05,0.02,0.08l-0.1,0.82
				c-0.01,0.06-0.04,0.09-0.11,0.08l-0.35-0.04l-0.11,0.86c0,0.02,0,0.04,0.01,0.05l0.1,0.12c0.02,0.02,0.03,0.03,0.04,0.03
				c0.01,0.01,0.01,0.01,0.01,0l0.56,0.07l-0.01-0.01l0.02,0c0.01,0,0.02,0,0.04-0.02l0.11-0.08l0.16-1.3
				c0-0.02,0.01-0.04,0.01-0.05c0.02-0.04,0.04-0.08,0.08-0.12l0.44-0.34c0.04-0.03,0.09-0.05,0.13-0.05c0.02,0,0.04,0,0.06,0
				l1.64,0.21c0.02,0,0.04,0.01,0.06,0.01c0.04,0.01,0.08,0.04,0.11,0.08l0.34,0.44c0.03,0.04,0.05,0.09,0.05,0.13
				c0,0.02,0,0.04,0,0.06l-0.23,1.79c0,0.02-0.01,0.04-0.01,0.06c-0.01,0.04-0.04,0.08-0.08,0.11l-0.44,0.34
				c-0.04,0.03-0.08,0.05-0.13,0.05c-0.02,0-0.04,0-0.06-0.01l-0.01,0.01l-0.67-0.09c-0.03,0-0.05-0.02-0.07-0.04
				c-0.02-0.02-0.02-0.05-0.02-0.08l0.1-0.82c0.01-0.06,0.04-0.09,0.11-0.08l0.31,0.04l0.11-0.87c0-0.01,0-0.02-0.02-0.04l-0.1-0.13
				c-0.01-0.01-0.01-0.01-0.02-0.02c0,0-0.01-0.01-0.02-0.01l-0.02,0l-0.52-0.07l-0.01,0c0,0-0.01,0-0.02,0
				c-0.01,0-0.02,0.01-0.03,0.01l-0.13,0.1c-0.02,0.01-0.02,0.02-0.03,0.03l-0.16,1.25c0,0.02-0.01,0.04-0.01,0.06
				c-0.01,0.04-0.04,0.08-0.08,0.11l-0.44,0.34c-0.04,0.03-0.08,0.05-0.13,0.05c-0.02,0-0.04,0-0.06-0.01l0,0.01L9.1,28.05l0-0.01
				c-0.02,0-0.04,0-0.06-0.01C9,28.02,8.96,27.99,8.93,27.95l-0.34-0.44c-0.03-0.04-0.05-0.08-0.05-0.13c0-0.02,0-0.04,0-0.06
				l0.23-1.79c0-0.02,0.01-0.04,0.01-0.05c0.02-0.05,0.04-0.08,0.09-0.12l0.44-0.34c0.04-0.03,0.09-0.05,0.13-0.05
				C9.45,24.97,9.47,24.97,9.49,24.97L9.49,24.97z"/>
		</g>
	</g>
	<g>
		<g>
			<path d="M13.99,21.75c0.03-0.01,0.05-0.02,0.07-0.01l0.78,0.28c0.03,0.01,0.05,0.03,0.06,0.05c0.01,0.03,0.01,0.05,0,0.08
				l-0.93,2.64c-0.01,0.03-0.03,0.05-0.05,0.06c-0.02,0.01-0.05,0.02-0.08,0.01L9.43,23.3l0-0.01c-0.05-0.03-0.06-0.07-0.04-0.12
				l0.27-0.78c0.02-0.05,0.05-0.07,0.1-0.07l3.55,1.24l0.62-1.77C13.94,21.78,13.96,21.76,13.99,21.75z"/>
		</g>
	</g>
	<g>
		<g>
			<path d="M13.3,19.16l0.64-1.06c0.03-0.06,0.08-0.07,0.13-0.03l0.71,0.43c0.06,0.03,0.07,0.08,0.03,0.13l-0.64,1.06l0.77,0.47
				l0.84-1.38c0.01-0.02,0.03-0.03,0.06-0.04c0.03-0.01,0.05-0.01,0.08,0.01l0.71,0.43c0.02,0.01,0.04,0.04,0.04,0.06
				c0.01,0.03,0,0.05-0.01,0.07l-1.32,2.17c-0.03,0.06-0.08,0.07-0.13,0.03l-4.01-2.43c-0.06-0.03-0.07-0.08-0.03-0.13l1.32-2.17
				c0.01-0.02,0.03-0.03,0.06-0.04c0.03-0.01,0.05-0.01,0.08,0.01l0.71,0.43c0.02,0.01,0.04,0.04,0.04,0.06
				c0.01,0.03,0,0.05-0.01,0.07l-0.84,1.38L13.3,19.16z"/>
		</g>
	</g>
	<g>
		<g>
			<path d="M15.72,15.97l0.84-0.91c0.04-0.05,0.09-0.05,0.14-0.01l0.61,0.56c0.05,0.04,0.05,0.09,0.01,0.14l-0.84,0.91l0.66,0.61
				l1.09-1.19c0.02-0.02,0.04-0.03,0.07-0.03c0.03,0,0.05,0.01,0.07,0.02l0.61,0.56c0.02,0.02,0.03,0.04,0.03,0.07
				c0,0.03-0.01,0.05-0.02,0.07l-1.72,1.87c-0.04,0.05-0.09,0.05-0.14,0.01l-3.45-3.18c-0.05-0.04-0.05-0.09-0.01-0.14l1.72-1.87
				c0.02-0.02,0.04-0.03,0.07-0.03c0.03,0,0.05,0.01,0.07,0.02l0.61,0.56c0.02,0.02,0.03,0.04,0.03,0.07c0,0.03-0.01,0.05-0.02,0.07
				l-1.09,1.19L15.72,15.97z"/>
		</g>
	</g>
	<g>
		<g>
			<path d="M22.67,14.07c0.04,0.05,0.03,0.1-0.02,0.14l-0.68,0.47c-0.02,0.02-0.05,0.02-0.08,0.02c-0.03,0-0.05-0.02-0.07-0.04
				l-1.03-1.44l0.57,1.77c0.01,0.02,0,0.05,0,0.08c-0.01,0.03-0.02,0.05-0.05,0.07l-0.46,0.32c-0.02,0.02-0.05,0.02-0.08,0.02
				c-0.03,0-0.06-0.01-0.08-0.02l-1.45-1.16l0.98,1.47c0.04,0.05,0.03,0.1-0.02,0.14l-0.68,0.47c-0.02,0.01-0.04,0.02-0.07,0.01
				c-0.03,0-0.05-0.02-0.07-0.04l-2.5-3.95l-0.01-0.02c-0.01-0.03-0.01-0.05,0-0.08c0,0,0.01-0.01,0.01-0.01
				c0.01-0.01,0.01-0.01,0.01-0.02l0.73-0.5c0.04-0.03,0.08-0.02,0.14,0.02l2.05,1.86l0.4,0.44l-0.29-0.51l-0.93-2.64
				c-0.02-0.06-0.01-0.1,0.03-0.13l0.73-0.5c0.01,0,0.01,0,0.02-0.01c0,0,0.01,0,0.01,0c0.02,0,0.05,0.01,0.07,0.03l0.01,0.01
				l0.01,0L22.67,14.07z"/>
		</g>
	</g>
	<g>
		<g>
			<path d="M23.54,8.83c0.49,0.65,0.98,1.3,1.47,1.95c0.49,0.65,0.98,1.3,1.47,1.95c0.02,0.02,0.02,0.04,0,0.07
				c-0.02,0.03-0.04,0.05-0.06,0.06l-0.75,0.28c-0.03,0.01-0.05,0.01-0.08,0c-0.03-0.01-0.05-0.03-0.07-0.05l-0.36-0.47l-1.32,0.49
				l0.04,0.59c0,0.02-0.01,0.05-0.02,0.08c-0.01,0.03-0.03,0.05-0.06,0.06l-0.75,0.28c-0.03,0.01-0.05,0.01-0.09,0
				c-0.03-0.01-0.05-0.03-0.05-0.05l-0.34-4.87l0-0.01c0-0.07,0.02-0.11,0.06-0.13l0.29-0.11l0.2-0.08l0.29-0.11
				C23.45,8.75,23.5,8.77,23.54,8.83L23.54,8.83z M24.57,11.83l-0.89-1.19l0.1,1.49L24.57,11.83z"/>
		</g>
	</g>
	<g>
		<g>
			<path d="M29.62,7.65l0.6,4.65c0,0.02,0,0.05-0.02,0.07c-0.02,0.02-0.04,0.04-0.07,0.04l-1.09,0.14c-0.03,0-0.05,0-0.08-0.02
				c-0.03-0.02-0.04-0.04-0.06-0.06l-1.14-2.21l0.3,2.31c0,0.02,0,0.05-0.02,0.07c-0.02,0.02-0.04,0.04-0.06,0.04l-0.82,0.11
				c-0.03,0-0.05,0-0.07-0.02c-0.02-0.02-0.03-0.04-0.04-0.06l-0.6-4.65c-0.01-0.06,0.02-0.1,0.08-0.11l1.03-0.13
				c0.05-0.01,0.09,0.02,0.11,0.08l0.01,0l1.26,2.56l0.02,0.07l-0.35-2.75c0-0.03,0-0.05,0.02-0.07c0.02-0.02,0.04-0.03,0.06-0.04
				l0.82-0.11C29.58,7.56,29.62,7.58,29.62,7.65z"/>
		</g>
	</g>
	<g>
		<g>
			<path d="M37.93,11.04c-0.01,0.02-0.01,0.04-0.02,0.06c-0.02,0.04-0.05,0.07-0.1,0.09l-0.34,0.19l0.18,0.34
				c0.02,0.03,0.02,0.05,0.03,0.08c0,0.02,0,0.04,0,0.06l0.01,0l-0.38,1.28c-0.01,0.02-0.01,0.04-0.02,0.06
				c-0.02,0.04-0.05,0.07-0.1,0.09l-0.49,0.26c-0.05,0.03-0.09,0.04-0.14,0.03c-0.02,0-0.04,0-0.06-0.01l-2.13-0.63
				c-0.06-0.02-0.08-0.06-0.07-0.12l1.33-4.49c0.02-0.06,0.06-0.08,0.12-0.07l2.13,0.63c0.02,0.01,0.04,0.01,0.05,0.02
				c0.04,0.02,0.08,0.06,0.1,0.1l0.26,0.49c0.02,0.05,0.04,0.09,0.03,0.14c0,0.02,0,0.04-0.01,0.06L37.93,11.04z M35.55,12.23
				l0.76,0.23l0.12-0.07c0.02-0.01,0.03-0.03,0.03-0.04l0.16-0.54l0-0.01c0,0,0-0.01,0-0.02c0-0.01-0.01-0.01-0.01-0.02l-0.08-0.15
				c-0.01-0.02-0.02-0.03-0.03-0.03l-0.7-0.21L35.55,12.23z M36.36,9.52l-0.26,0.86l0.76,0.23l0.12-0.07
				c0.02-0.01,0.03-0.03,0.03-0.04l0.16-0.54l0-0.01c0,0,0-0.01,0-0.02c0-0.01-0.01-0.01-0.01-0.02l-0.08-0.15
				c-0.01-0.02-0.02-0.03-0.03-0.03L36.36,9.52z"/>
		</g>
	</g>
	<g>
		<g>
			<path d="M41.47,13.38c-0.01,0.02-0.02,0.04-0.04,0.05c-0.01,0.01-0.03,0.03-0.04,0.04c-0.02,0.01-0.04,0.02-0.07,0.03l-0.54,0.16
				l-0.02,0l-0.22,1.88c0,0.02-0.02,0.04-0.05,0.05c-0.03,0.01-0.06,0-0.08-0.01l-0.82-0.45c-0.02-0.01-0.04-0.03-0.05-0.06
				s-0.01-0.06-0.01-0.08l0.21-1.82l-0.28-0.15l-0.81,1.49c-0.01,0.02-0.03,0.04-0.06,0.04c-0.03,0.01-0.05,0.01-0.08-0.01
				l-0.73-0.4c-0.02-0.01-0.03-0.03-0.04-0.06c-0.01-0.03-0.01-0.05,0-0.07l2.25-4.11c0.01-0.02,0.03-0.04,0.06-0.05
				c0.03-0.01,0.05,0,0.07,0.01l1.95,1.07c0.02,0.01,0.03,0.02,0.05,0.03c0.01,0.01,0.03,0.03,0.04,0.04
				c0.02,0.02,0.03,0.04,0.04,0.07l0.16,0.54c0.01,0.03,0.01,0.06,0.01,0.08s-0.01,0.04-0.01,0.06c-0.01,0.02-0.01,0.04-0.02,0.06
				L41.47,13.38z M39.95,12.12l0.64,0.35c0.02,0.01,0.03,0.01,0.05,0.01l0.15-0.04c0.02-0.01,0.03-0.01,0.03-0.02l0.01-0.02
				l0.32-0.58l0.01-0.01c0.01-0.01,0.01-0.03,0-0.05l-0.04-0.15c-0.01-0.02-0.01-0.03-0.03-0.04l-0.01-0.01l-0.64-0.35L39.95,12.12z
				"/>
		</g>
	</g>
	<g>
		<g>
			<path d="M43.59,14.5l0.94,0.81c0.05,0.04,0.05,0.09,0.01,0.14L44,16.07c-0.04,0.05-0.09,0.05-0.14,0.01l-0.94-0.81l-0.59,0.68
				l1.22,1.05c0.02,0.02,0.03,0.04,0.03,0.06c0,0.03,0,0.05-0.02,0.07l-0.54,0.63c-0.02,0.02-0.04,0.03-0.07,0.03
				c-0.03,0-0.05-0.01-0.07-0.02l-1.92-1.66c-0.05-0.04-0.05-0.09-0.01-0.14l3.06-3.55c0.04-0.05,0.09-0.05,0.14-0.01l1.92,1.66
				c0.02,0.02,0.03,0.04,0.03,0.06c0,0.03,0,0.05-0.02,0.07l-0.54,0.63c-0.02,0.02-0.04,0.03-0.07,0.03c-0.03,0-0.05-0.01-0.07-0.02
				l-1.22-1.05L43.59,14.5z"/>
		</g>
	</g>
	<g>
		<g>
			<path d="M45.48,21.04l-0.02,0.01c-0.03,0.01-0.05,0.01-0.08,0c0,0-0.01,0-0.01,0c0,0,0,0-0.01,0l-0.01,0l-0.01-0.01l-0.01-0.01
				l-0.52-0.7c-0.03-0.04-0.02-0.09,0.02-0.14l1.12-1.44l0.25-0.25l-0.31,0.17l-1.74,0.61c-0.07,0.02-0.11,0.01-0.14-0.03l-0.52-0.7
				c0,0,0-0.01,0-0.01c0,0,0,0,0-0.01s0-0.01,0-0.01c0,0,0-0.01,0-0.01c0,0,0-0.01,0-0.01c-0.01-0.03,0-0.05,0.03-0.07
				c0,0,0-0.01,0-0.01l0.01-0.01l3.53-3.07c0.02-0.01,0.04-0.02,0.07-0.02c0.03,0,0.05,0.02,0.07,0.04l0.49,0.66
				c0.02,0.02,0.02,0.05,0.02,0.08c0,0.03-0.02,0.05-0.03,0.06l-1.81,1.55l1.11-0.32c0.02-0.01,0.05-0.01,0.08,0
				c0.03,0.01,0.05,0.02,0.07,0.04l0.33,0.45c0.02,0.02,0.02,0.05,0.02,0.08c0,0.03-0.01,0.06-0.02,0.08l-0.64,0.96l2.01-1.27
				c0.02-0.01,0.04-0.02,0.07-0.02c0.03,0,0.05,0.02,0.07,0.04l0.49,0.67c0.01,0.02,0.02,0.04,0.01,0.07c0,0.03-0.02,0.05-0.03,0.06
				L45.48,21.04z"/>
		</g>
	</g>
	<g>
		<g>
			<path d="M50.46,20.8l-4.18,2.07c-0.06,0.03-0.1,0.01-0.13-0.04l-0.37-0.75c-0.03-0.06-0.01-0.1,0.04-0.13l4.18-2.07
				c0.06-0.03,0.1-0.01,0.13,0.04l0.37,0.75C50.53,20.72,50.52,20.77,50.46,20.8z"/>
		</g>
	</g>
	<g>
		<g>
			<path d="M52,25.31l-4.49,1.34c-0.02,0.01-0.05,0-0.07-0.01c-0.03-0.01-0.04-0.03-0.05-0.06l-0.32-1.06
				c-0.01-0.03-0.01-0.05,0.01-0.08c0.01-0.03,0.03-0.05,0.05-0.07l1.99-1.48l-2.24,0.67c-0.02,0.01-0.05,0-0.07-0.01
				s-0.04-0.03-0.05-0.05l-0.24-0.8c-0.01-0.03,0-0.05,0.01-0.08s0.03-0.04,0.06-0.05l4.49-1.34c0.06-0.02,0.1,0,0.12,0.07l0.3,1
				c0.01,0.05-0.01,0.09-0.07,0.12l0,0.01l-2.32,1.66l-0.07,0.04l2.66-0.79c0.03-0.01,0.05,0,0.08,0.01
				c0.02,0.01,0.04,0.03,0.05,0.06l0.24,0.8C52.08,25.25,52.06,25.29,52,25.31z"/>
		</g>
	</g>
	<g>
		<g>
			<path d="M49.31,28.83c0-0.03,0.01-0.05,0.03-0.07c0.02-0.02,0.04-0.03,0.06-0.03l0.83-0.06c0.07,0,0.1,0.03,0.1,0.09l0.09,1.38
				c0,0.03-0.01,0.05-0.02,0.08c-0.02,0.02-0.04,0.03-0.07,0.04l-2.12,0.15l0-0.01c-0.05-0.01-0.09-0.03-0.13-0.06l-0.42-0.36
				c-0.04-0.03-0.07-0.07-0.08-0.12c-0.01-0.02-0.01-0.04-0.01-0.06l-0.12-1.8c0-0.02,0-0.04,0-0.06c0.01-0.04,0.03-0.08,0.06-0.12
				l0.36-0.42c0.03-0.04,0.07-0.07,0.11-0.08c0.02-0.01,0.04-0.01,0.06,0l0.01-0.01l3.57-0.24l0,0.01c0.02-0.01,0.04-0.01,0.06,0
				c0.05,0.01,0.09,0.03,0.13,0.06l0.42,0.36c0.04,0.03,0.07,0.07,0.08,0.11c0.01,0.02,0.01,0.04,0.01,0.06l0.12,1.8
				c0,0.02,0,0.04,0,0.06c-0.01,0.05-0.03,0.09-0.06,0.13l-0.36,0.42c-0.03,0.04-0.07,0.07-0.12,0.08
				c-0.02,0.01-0.04,0.01-0.06,0.01l0-0.01l-0.01,0.01l-0.74,0.05c-0.02,0-0.05-0.01-0.07-0.03C51.02,30.15,51,30.12,51,30.1
				l-0.06-0.82c0-0.03,0.01-0.05,0.03-0.07c0.02-0.02,0.04-0.03,0.06-0.03l0.18-0.01l0.01,0c0,0,0.01,0,0.01-0.01
				c0-0.01,0.01-0.01,0.02-0.02l0.11-0.13c0.01-0.01,0.02-0.03,0.02-0.05l-0.05-0.68c0-0.02-0.01-0.03-0.02-0.05l-0.13-0.1
				c-0.02-0.02-0.03-0.03-0.04-0.03c-0.01,0-0.01,0-0.01,0l-2.49,0.17c-0.01,0.01-0.02,0.01-0.02,0.01c-0.01,0-0.01,0.01-0.02,0.02
				l-0.09,0.1l0.06,0.82l0.1,0.09c0.02,0.01,0.04,0.02,0.05,0.02l0.61-0.04L49.31,28.83z"/>
		</g>
	</g>
	<g>
		<g>
			<path d="M14.65,36.68c-0.01,0.03-0.03,0.04-0.06,0.05l-0.79,0.25c-0.03,0.01-0.05,0.01-0.08-0.01c-0.02-0.01-0.04-0.03-0.05-0.06
				l-0.27-0.84l-3.58,1.15c-0.06,0.01-0.09-0.01-0.11-0.07l-0.25-0.78c-0.02-0.05,0-0.09,0.05-0.12l3.58-1.15l-0.27-0.84
				c-0.01-0.03-0.01-0.05,0-0.08s0.03-0.04,0.06-0.05l0.79-0.25c0.03-0.01,0.05-0.01,0.08,0.01c0.03,0.01,0.04,0.03,0.05,0.06
				l0.85,2.66C14.66,36.63,14.66,36.65,14.65,36.68z"/>
		</g>
	</g>
	<g>
		<g>
			<path d="M13.61,38.6l0.58,1.09c0.03,0.06,0.02,0.1-0.04,0.13l-0.74,0.39c-0.06,0.03-0.1,0.02-0.13-0.04l-0.58-1.09l-0.8,0.42
				l0.75,1.43c0.01,0.02,0.01,0.04,0.01,0.07c-0.01,0.03-0.02,0.05-0.05,0.06l-0.73,0.39c-0.02,0.01-0.05,0.01-0.08,0
				c-0.03-0.01-0.04-0.03-0.06-0.05l-1.19-2.25c-0.03-0.06-0.02-0.1,0.04-0.13l4.14-2.19c0.06-0.03,0.1-0.02,0.13,0.04l1.19,2.25
				c0.01,0.02,0.01,0.04,0.01,0.07c-0.01,0.03-0.02,0.05-0.05,0.06l-0.73,0.39c-0.02,0.01-0.05,0.01-0.08,0s-0.04-0.03-0.06-0.05
				l-0.75-1.43L13.61,38.6z"/>
		</g>
	</g>
	<g>
		<g>
			<path d="M17.59,41.15c-0.46,0.67-0.92,1.35-1.38,2.01c-0.46,0.67-0.92,1.34-1.38,2.01c-0.01,0.02-0.03,0.03-0.07,0.02
				c-0.03-0.01-0.06-0.02-0.08-0.04l-0.5-0.62c-0.02-0.02-0.03-0.05-0.02-0.08c0-0.03,0.01-0.06,0.02-0.08l0.33-0.49l-0.89-1.09
				l-0.54,0.23c-0.02,0.01-0.05,0.01-0.08,0c-0.03,0-0.06-0.02-0.07-0.04l-0.5-0.62c-0.02-0.02-0.03-0.05-0.03-0.08
				c0-0.03,0.01-0.05,0.04-0.06l4.5-1.88l0.01,0c0.07-0.02,0.11-0.01,0.14,0.01l0.19,0.24l0.14,0.17l0.19,0.24
				C17.63,41.04,17.63,41.09,17.59,41.15L17.59,41.15z M15.07,43.08l0.85-1.23l-1.38,0.57L15.07,43.08z"/>
		</g>
	</g>
	<g>
		<g>
			<path d="M18.67,48.28c-0.04,0.05-0.09,0.06-0.14,0.02l-0.64-0.51c-0.02-0.02-0.04-0.04-0.04-0.07c0-0.03,0-0.05,0.02-0.07
				l1.08-1.4l-1.53,1.06c-0.02,0.01-0.05,0.02-0.08,0.02c-0.03,0-0.06-0.01-0.08-0.02l-0.44-0.35c-0.02-0.02-0.04-0.04-0.04-0.07
				c-0.01-0.03-0.01-0.06,0-0.09l0.7-1.72l-1.13,1.36c-0.04,0.05-0.09,0.06-0.14,0.02l-0.65-0.52c-0.02-0.01-0.03-0.04-0.03-0.06
				c0-0.03,0-0.05,0.02-0.07l3.06-3.53l0.01-0.02c0.02-0.02,0.04-0.03,0.07-0.02c0,0,0.01,0,0.02,0c0.01,0.01,0.01,0.01,0.02,0.01
				l0.69,0.55c0.04,0.03,0.04,0.07,0.03,0.14l-1.19,2.5l-0.31,0.51l0.41-0.42l2.26-1.65c0.05-0.04,0.1-0.04,0.14-0.01l0.69,0.55
				c0,0.01,0,0.01,0.01,0.02c0,0,0,0.01,0,0.01c0.01,0.02,0,0.05-0.01,0.08l-0.01,0.01l0,0.01L18.67,48.28z"/>
		</g>
	</g>
	<g>
		<g>
			<path d="M24.05,46.26c0.01-0.02,0.02-0.04,0.03-0.06c0.02-0.04,0.05-0.07,0.1-0.09l0.49-0.26c0.06-0.03,0.1-0.04,0.13-0.03
				c0.02,0,0.04,0.01,0.06,0.01l1.73,0.54c0.02,0.01,0.04,0.02,0.06,0.03c0.03,0.01,0.06,0.05,0.09,0.1l0.26,0.49
				c0.02,0.05,0.03,0.09,0.03,0.14c0,0.02,0,0.04-0.01,0.06l-0.01,0l0,0.02l-0.22,0.7c-0.01,0.02-0.02,0.04-0.05,0.05
				c-0.03,0.01-0.05,0.02-0.07,0.01l-0.79-0.25c-0.03-0.01-0.05-0.03-0.06-0.05c-0.01-0.03-0.01-0.05-0.01-0.07l0.05-0.17l0-0.01
				c0,0,0-0.01,0-0.02c0-0.01-0.01-0.01-0.01-0.02l-0.08-0.15c-0.01-0.02-0.02-0.03-0.04-0.03l-0.65-0.2c-0.01,0-0.03,0-0.05,0.01
				l-0.14,0.08c-0.02,0.01-0.04,0.02-0.04,0.02c-0.01,0-0.01,0.01,0,0.01l-0.74,2.38c0,0.01,0,0.02,0,0.03c0,0.01,0,0.02,0.01,0.03
				l0.06,0.12l0.77,0.24l0.12-0.06c0.02-0.01,0.03-0.02,0.03-0.04l0.06-0.2c0.01-0.02,0.02-0.04,0.05-0.06
				c0.02-0.01,0.05-0.02,0.08-0.01l0.79,0.25c0.02,0.01,0.04,0.02,0.05,0.05c0.01,0.03,0.02,0.05,0.01,0.07l-0.23,0.75
				c-0.01,0.02-0.02,0.03-0.03,0.04c-0.01,0.01-0.04,0.03-0.08,0.05l-0.49,0.26c-0.05,0.02-0.09,0.04-0.13,0.03
				c-0.02,0-0.04,0-0.06-0.01l-1.73-0.54c-0.02-0.01-0.04-0.02-0.06-0.03c-0.04-0.02-0.07-0.06-0.09-0.1L23,49.87
				c-0.02-0.04-0.03-0.08-0.02-0.13c0-0.02,0.01-0.04,0.01-0.06L24.05,46.26z"/>
		</g>
	</g>
	<g>
		<g>
			<path d="M29.94,50.73c0.02,0.02,0.03,0.05,0.02,0.07l-0.1,0.83c0,0.03-0.02,0.05-0.04,0.07c-0.02,0.02-0.05,0.02-0.08,0.02
				l-2.77-0.32c-0.03,0-0.05-0.02-0.07-0.04c-0.02-0.02-0.03-0.05-0.02-0.07l0.55-4.66l0.01,0c0.02-0.05,0.05-0.07,0.11-0.06
				l0.82,0.1c0.06,0.01,0.08,0.04,0.09,0.09l-0.44,3.73l1.86,0.22C29.9,50.69,29.92,50.71,29.94,50.73z"/>
		</g>
	</g>
	<g>
		<g>
			<path d="M31.73,48.64l1.23-0.08c0.07,0,0.1,0.03,0.1,0.09l0.05,0.83c0,0.07-0.03,0.1-0.09,0.1l-1.23,0.08l0.06,0.9l1.61-0.1
				c0.02,0,0.05,0.01,0.07,0.02c0.02,0.02,0.03,0.04,0.04,0.07l0.05,0.83c0,0.03-0.01,0.05-0.03,0.07
				c-0.02,0.02-0.04,0.03-0.06,0.03l-2.54,0.16c-0.07,0-0.1-0.03-0.1-0.09l-0.3-4.68c0-0.06,0.03-0.1,0.09-0.1l2.54-0.16
				c0.02,0,0.05,0.01,0.07,0.02c0.02,0.02,0.03,0.04,0.04,0.07l0.05,0.83c0,0.03-0.01,0.05-0.03,0.07
				c-0.02,0.02-0.04,0.03-0.06,0.03l-1.61,0.1L31.73,48.64z"/>
		</g>
	</g>
	<g>
		<g>
			<path d="M35.7,46.06c0.43,0.7,0.85,1.39,1.27,2.08c0.42,0.69,0.85,1.39,1.27,2.08c0.02,0.02,0.01,0.04-0.01,0.07
				c-0.02,0.03-0.04,0.04-0.07,0.05l-0.77,0.21c-0.03,0.01-0.05,0-0.08-0.01c-0.03-0.01-0.05-0.03-0.06-0.05l-0.31-0.5l-1.36,0.36
				l-0.02,0.59c0,0.02-0.01,0.05-0.03,0.08c-0.02,0.03-0.04,0.04-0.07,0.05l-0.77,0.21c-0.03,0.01-0.06,0-0.09-0.01
				c-0.03-0.01-0.04-0.03-0.04-0.06l0.13-4.88l0-0.01c0.01-0.07,0.03-0.11,0.07-0.12l0.3-0.08l0.21-0.06l0.3-0.08
				C35.62,45.97,35.66,45.99,35.7,46.06L35.7,46.06z M36.43,49.14l-0.77-1.28l-0.04,1.49L36.43,49.14z"/>
		</g>
	</g>
	<g>
		<g>
			<path d="M40.81,46.32c0.01,0.02,0.02,0.04,0.02,0.06c0,0.02,0.01,0.04,0.01,0.06c0,0.02,0,0.05-0.01,0.08l-0.18,0.53l-0.01,0.02
				l1.42,1.25c0.02,0.02,0.02,0.04,0.01,0.07c-0.01,0.03-0.03,0.05-0.05,0.06l-0.84,0.42c-0.02,0.01-0.05,0.01-0.08,0.01
				c-0.03-0.01-0.05-0.02-0.07-0.04l-1.37-1.22l-0.29,0.14l0.75,1.52c0.01,0.02,0.01,0.04,0,0.07s-0.02,0.05-0.05,0.06l-0.74,0.37
				c-0.02,0.01-0.05,0.01-0.07,0c-0.03-0.01-0.05-0.02-0.06-0.05l-2.08-4.2c-0.01-0.02-0.01-0.05,0-0.08
				c0.01-0.03,0.03-0.04,0.05-0.05l1.99-0.99c0.02-0.01,0.03-0.01,0.05-0.02c0.02,0,0.04-0.01,0.06-0.01s0.05,0,0.08,0.01l0.53,0.18
				c0.03,0.01,0.06,0.02,0.07,0.04s0.03,0.03,0.04,0.05c0.01,0.02,0.03,0.04,0.03,0.05L40.81,46.32z M38.9,46.84l0.66-0.33
				c0.02-0.01,0.03-0.02,0.03-0.04l0.05-0.15c0.01-0.02,0.01-0.03,0-0.04l-0.01-0.02l-0.29-0.59l-0.01-0.01
				c-0.01-0.01-0.02-0.02-0.04-0.03l-0.15-0.05c-0.02-0.01-0.03-0.01-0.05,0l-0.01,0.01l-0.65,0.32L38.9,46.84z"/>
		</g>
	</g>
	<g>
		<g>
			<path d="M47.22,42.34c0.02-0.02,0.04-0.03,0.07-0.03c0.03,0,0.05,0.01,0.07,0.03l0.61,0.56c0.05,0.04,0.05,0.09,0.01,0.14
				l-1.96,2.14c-0.04,0.05-0.09,0.05-0.14,0.01l-1.52-1.4c-0.01-0.01-0.03-0.03-0.04-0.04c-0.03-0.04-0.04-0.08-0.05-0.14
				l-0.02-0.55c0-0.03,0-0.06,0.01-0.08c0.01-0.02,0.02-0.04,0.02-0.05c0.01-0.02,0.02-0.03,0.04-0.05l0.88-0.96l-0.01-0.14
				c0-0.01,0-0.02,0-0.02c0,0,0-0.01-0.01-0.02l-0.02-0.01l-0.51-0.47l-0.01-0.01c-0.01-0.01-0.03-0.01-0.05-0.01l-0.16,0.01
				c-0.03,0-0.04,0.01-0.05,0.02l-0.59,0.64l0.26,0.24c0.05,0.04,0.05,0.09,0.01,0.14l-0.56,0.61c-0.04,0.05-0.09,0.05-0.14,0.01
				l-0.54-0.5c-0.01-0.01-0.03-0.03-0.04-0.04c-0.03-0.04-0.04-0.08-0.05-0.14l-0.02-0.55c0-0.03,0-0.06,0.01-0.08
				c0.01-0.02,0.02-0.04,0.02-0.05c0.01-0.02,0.02-0.03,0.04-0.05l1.22-1.34l0.01,0c0.01-0.01,0.03-0.03,0.04-0.04
				c0.02-0.01,0.03-0.02,0.05-0.03c0.02-0.01,0.05-0.02,0.08-0.02l0.55-0.02c0.03,0,0.06,0,0.08,0.01s0.04,0.02,0.06,0.03
				c0.02,0.01,0.03,0.02,0.05,0.03l1.33,1.22c0.02,0.02,0.03,0.03,0.04,0.05c0.01,0.02,0.02,0.03,0.03,0.05
				c0.01,0.02,0.01,0.04,0.02,0.08l0.02,0.56c0,0.05-0.01,0.1-0.03,0.13c-0.01,0.02-0.02,0.03-0.04,0.04l-0.85,0.93l-0.01,0.04
				l0.01,0.17c0,0.02,0,0.03,0.01,0.04l0.01,0.01l0.42,0.39L47.22,42.34z"/>
		</g>
	</g>
	<g>
		<g>
			<path d="M49.34,40.73c0.04,0.04,0.05,0.08,0.02,0.13l-0.45,0.69c-0.03,0.05-0.07,0.06-0.12,0.04l-0.79-0.52
				c-0.05-0.04-0.06-0.08-0.03-0.14l0.45-0.69c0.04-0.05,0.08-0.06,0.14-0.03L49.34,40.73z"/>
		</g>
	</g>
	<g>
		<g>
			<path d="M47.46,35.02C47.46,35.03,47.47,35.03,47.46,35.02c0.01,0,0.01,0,0.02,0l3.27,1.45c0.02,0.01,0.03,0.02,0.05,0.03
				c0.03,0.03,0.06,0.06,0.08,0.11l0.21,0.52c0.02,0.05,0.02,0.1,0.01,0.14c0,0.02-0.01,0.04-0.02,0.05l-0.73,1.65
				c-0.01,0.02-0.01,0.04-0.03,0.06c-0.03,0.03-0.06,0.06-0.11,0.08l-0.52,0.2c-0.05,0.02-0.1,0.02-0.14,0.01
				c-0.02,0-0.04-0.01-0.05-0.02c0,0-0.01,0-0.02,0l-3.27-1.45l0-0.01c-0.02,0-0.04-0.01-0.05-0.02c-0.04-0.03-0.07-0.07-0.09-0.11
				l-0.2-0.52c-0.02-0.05-0.02-0.09-0.02-0.14c0-0.02,0.01-0.04,0.02-0.06l0.73-1.65c0.01-0.02,0.02-0.03,0.03-0.05
				c0.03-0.04,0.07-0.07,0.11-0.09l0.52-0.2c0.05-0.02,0.1-0.02,0.14-0.01C47.43,35,47.44,35.01,47.46,35.02L47.46,35.02z
				 M47.55,36.18c0,0-0.01,0-0.02,0c-0.01,0-0.01,0-0.02,0l-0.16,0.06c-0.02,0.02-0.04,0.03-0.04,0.04l-0.27,0.62
				c-0.01,0.01-0.01,0.03,0,0.05l0.06,0.15c0.01,0.02,0.02,0.04,0.02,0.04c0,0.01,0.01,0.01,0.01,0.01l2.29,1.01
				c0.01,0.01,0.03,0,0.05-0.01l0.13-0.04l0.33-0.75l-0.05-0.13c-0.01-0.02-0.02-0.03-0.03-0.04l-2.29-1.01L47.55,36.18z"/>
		</g>
	</g>
	<g>
		<polygon points="23.47,30.03 24.66,28.84 26.41,28.84 26.81,28.45 26.81,24.12 26.41,23.72 25.81,23.72 25.42,24.12 25.42,25.95 
			23.51,25.95 23.51,23.29 24.7,22.09 27.52,22.09 28.71,23.29 28.71,29.32 27.52,30.51 25.77,30.51 25.38,30.91 25.38,35.55 
			28.63,35.55 28.63,37.18 23.47,37.18 		"/>
	</g>
	<g>
		<rect x="29.24" y="35" width="1.98" height="2.18"/>
	</g>
	<g>
		<path d="M37.36,35.99l-1.19,1.19h-3.12l-1.19-1.19v-12.7l1.19-1.19h3.12l1.19,1.19V35.99z M34.17,23.72l-0.4,0.4v11.04l0.4,0.4
			h0.89l0.4-0.4V24.12l-0.4-0.4H34.17z"/>
	</g>
</g>
</svg>
