<svg width="61" height="61" viewBox="0 0 61 61" fill="none" xmlns="http://www.w3.org/2000/svg">
<g filter="url(#filter0_d_1265_435)">
<path d="M30.3504 57.7091C46.0079 57.7091 58.7008 45.0143 58.7008 29.3546C58.7008 13.6948 46.0079 1 30.3504 1C14.6929 1 2 13.6948 2 29.3546C2 45.0143 14.6929 57.7091 30.3504 57.7091Z" fill="white"/>
</g>
<g clip-path="url(#clip0_1265_435)">
<path d="M17.5611 30.6293L17.5923 30.6089L18.1841 30.0189C18.2184 29.9846 18.241 29.9535 18.2517 29.9257C18.2625 29.8978 18.2711 29.8711 18.2775 29.8432C18.284 29.8154 18.2883 29.7843 18.2883 29.7501V27.1209C18.2883 27.0931 18.285 27.062 18.2775 27.0277C18.27 26.9999 18.2625 26.9688 18.2517 26.9346C18.241 26.9003 18.2184 26.866 18.1841 26.8307L17.5923 26.2406C17.5579 26.2063 17.5246 26.1838 17.4935 26.1731C17.4623 26.1624 17.4333 26.1539 17.4054 26.1474C17.3775 26.141 17.3495 26.1367 17.3227 26.1367H14.0211C13.9868 26.1367 13.9535 26.1506 13.9223 26.1785C13.8912 26.2063 13.8761 26.2406 13.8761 26.2824V33.2285C13.8761 33.2627 13.8912 33.2959 13.9223 33.327C13.9535 33.358 13.9868 33.373 14.0211 33.373H15.2573C15.2992 33.373 15.3336 33.358 15.3615 33.327C15.3894 33.2959 15.4034 33.2627 15.4034 33.2285V30.7128H15.8813L16.8985 33.2285C16.9124 33.2627 16.936 33.2959 16.9715 33.327C17.0059 33.358 17.0445 33.373 17.0853 33.373H18.4762C18.5106 33.373 18.5471 33.358 18.5847 33.327C18.6223 33.2959 18.6352 33.2627 18.6212 33.2285L17.5622 30.6304L17.5611 30.6293ZM16.7621 27.938V28.9426C16.7621 28.9565 16.7513 28.9736 16.7309 28.994L16.5644 29.16C16.544 29.1803 16.5193 29.191 16.4914 29.191H15.4023V27.6585H16.5032C16.5236 27.6585 16.5451 27.6692 16.5655 27.6896L16.732 27.8556C16.7524 27.8759 16.7631 27.8973 16.7631 27.9177V27.938H16.7621Z" fill="black"/>
<path d="M24.0762 26.9282C24.0655 26.8972 24.0429 26.864 24.0086 26.8297L23.4168 26.2503C23.3609 26.1957 23.2986 26.1604 23.2299 26.1465C23.202 26.14 23.174 26.1357 23.1472 26.1357H20.4685C20.4342 26.1357 20.403 26.139 20.3751 26.1465C20.3128 26.1604 20.2537 26.1946 20.199 26.2503L19.6179 26.8297C19.5621 26.8854 19.5277 26.9475 19.5137 27.0161C19.5062 27.0439 19.503 27.0717 19.503 27.0985V32.4093C19.503 32.4436 19.5062 32.4746 19.5137 32.5025C19.5277 32.5646 19.5621 32.6235 19.6179 32.6781L20.199 33.2575C20.2537 33.3132 20.3128 33.3474 20.3751 33.3614C20.403 33.3688 20.4342 33.3721 20.4685 33.3721H23.1579C23.1858 33.3721 23.2127 33.3688 23.2406 33.3614C23.3029 33.3474 23.362 33.3132 23.4168 33.2575L24.0086 32.6781C24.0429 32.6438 24.0655 32.6128 24.0762 32.5849C24.087 32.5571 24.0956 32.5303 24.102 32.5025C24.1084 32.4746 24.1127 32.4436 24.1127 32.4093V27.0985C24.1127 27.0707 24.1095 27.0439 24.102 27.0161C24.0956 26.9882 24.087 26.9593 24.0762 26.9282ZM22.5865 27.9371V31.6329C22.5865 31.6607 22.5758 31.6843 22.5554 31.7057L22.4104 31.8503H21.2064L21.0614 31.7057C21.041 31.6778 21.0303 31.6543 21.0303 31.6329V27.9167C21.0303 27.8964 21.041 27.8749 21.0614 27.8546L21.2376 27.6886C21.2515 27.6683 21.2719 27.6575 21.2998 27.6575H22.317C22.3449 27.6575 22.3685 27.6683 22.39 27.6886L22.5565 27.8546C22.5769 27.8749 22.5876 27.8964 22.5876 27.9167V27.9371H22.5865Z" fill="black"/>
<path d="M26.1781 33.3622C26.206 33.3697 26.2372 33.3697 26.2715 33.3622L28.9609 33.3729C28.9888 33.3729 29.0157 33.3697 29.0436 33.3622C29.1124 33.3483 29.1747 33.314 29.2305 33.2584L29.8116 32.679C29.8459 32.6447 29.8685 32.6136 29.8792 32.5858C29.89 32.558 29.8985 32.5312 29.905 32.5033C29.9114 32.4755 29.9157 32.4444 29.9157 32.4102V26.2823C29.9157 26.1859 29.8674 26.1377 29.7707 26.1377H28.5453C28.4486 26.1377 28.4003 26.1859 28.4003 26.2823V31.6337C28.3938 31.6402 28.3885 31.6509 28.3852 31.6648C28.382 31.6787 28.3734 31.6926 28.3595 31.7066L28.2145 31.8511H27.0105L26.8655 31.7066C26.8451 31.6787 26.8343 31.6552 26.8343 31.6337V26.2823C26.8343 26.1859 26.786 26.1377 26.6893 26.1377H25.4542C25.4198 26.1377 25.3865 26.1516 25.3554 26.1795C25.3242 26.2073 25.3081 26.2416 25.3081 26.2833V32.3909C25.3081 32.3984 25.3103 32.4016 25.3135 32.4016C25.3167 32.4016 25.3189 32.4048 25.3189 32.4123H25.3081C25.3081 32.4466 25.3114 32.4776 25.3189 32.5055C25.3328 32.5676 25.3672 32.6265 25.4231 32.6811L26.0041 33.2605C26.0589 33.3162 26.118 33.3505 26.1802 33.3644L26.1781 33.3622Z" fill="black"/>
<path d="M34.4578 26.1676C34.4267 26.1955 34.4105 26.2298 34.4105 26.2715V30.3807L34.3901 30.2672L33.0197 26.2715H33.0089C32.9885 26.1751 32.9391 26.127 32.8639 26.127H31.3173C31.2207 26.127 31.1723 26.1751 31.1723 26.2715V33.2176C31.1723 33.2519 31.1863 33.2851 31.2142 33.3161C31.2421 33.3472 31.2765 33.3622 31.3184 33.3622H32.5535C32.5879 33.3622 32.6212 33.3472 32.6524 33.3161C32.6835 33.2851 32.6996 33.2519 32.6996 33.2176V29.7606L33.9659 33.2176C33.9799 33.2519 34.0035 33.2851 34.0389 33.3161C34.0733 33.3472 34.112 33.3622 34.1528 33.3622H35.7928C35.8347 33.3622 35.8691 33.3472 35.897 33.3161C35.9249 33.2851 35.9389 33.2519 35.9389 33.2176V26.2715C35.9389 26.1751 35.8906 26.127 35.7939 26.127H34.5588C34.5244 26.127 34.4911 26.1409 34.4599 26.1687L34.4578 26.1676Z" fill="black"/>
<path d="M41.439 26.8307L40.858 26.2513C40.7892 26.1892 40.7302 26.1549 40.6818 26.1474C40.6539 26.141 40.6228 26.1367 40.5884 26.1367H37.2868C37.1901 26.1367 37.1418 26.1849 37.1418 26.2813V33.2274C37.1418 33.3238 37.1901 33.372 37.2868 33.372H40.5884C40.6163 33.372 40.6432 33.3688 40.6711 33.3613C40.7398 33.3473 40.8021 33.3131 40.858 33.2574L41.439 32.678C41.4938 32.6234 41.5292 32.5645 41.5432 32.5024C41.5496 32.4745 41.5539 32.4435 41.5539 32.4092V27.0984C41.5539 27.0642 41.5507 27.0331 41.5432 27.0052C41.5357 26.9571 41.5013 26.8982 41.439 26.8296V26.8307ZM40.0267 27.938V31.6338C40.0267 31.6542 40.0159 31.6788 39.9955 31.7067L39.8505 31.8512H38.6669V27.6585H39.7463C39.7807 27.6585 39.8054 27.6692 39.8194 27.6896L39.9955 27.8652C40.002 27.8791 40.0095 27.8898 40.0159 27.8963C40.0224 27.9038 40.0267 27.9102 40.0267 27.9166V27.937V27.938Z" fill="black"/>
<path d="M47.3462 27.0995C47.3462 27.0716 47.343 27.0449 47.3355 27.017C47.3215 26.9485 47.2871 26.8864 47.2313 26.8307L46.6502 26.2513C46.5944 26.1967 46.5321 26.1614 46.4633 26.1474C46.4354 26.141 46.4075 26.1367 46.3806 26.1367H43.6913C43.6569 26.1367 43.6257 26.1399 43.5978 26.1474C43.5355 26.1614 43.4765 26.1956 43.4217 26.2513L42.8406 26.8307C42.7848 26.8864 42.7504 26.9485 42.7364 27.017C42.73 27.0449 42.73 27.0727 42.7364 27.0995H42.7257V29.553H42.7364C42.73 29.5873 42.73 29.6183 42.7364 29.6462C42.7504 29.7083 42.7848 29.7672 42.8406 29.8218L43.4217 30.4012C43.4765 30.4569 43.5355 30.4911 43.5978 30.5051C43.6257 30.5115 43.6569 30.5158 43.6913 30.5158H45.5601C45.574 30.5158 45.5912 30.5265 45.6116 30.5468L45.7878 30.7128C45.7942 30.7268 45.8017 30.7385 45.8082 30.7492C45.8146 30.76 45.8189 30.7685 45.8189 30.7749V31.6028C45.8189 31.6167 45.8157 31.6253 45.8082 31.6285C45.8017 31.6317 45.7942 31.6403 45.7878 31.6542L45.6116 31.8202C45.5912 31.8405 45.574 31.8512 45.5601 31.8512H44.2519V31.3854C44.2519 31.289 44.2036 31.2408 44.1069 31.2408H42.8814C42.8396 31.2408 42.8041 31.2547 42.773 31.2826C42.7418 31.3104 42.7257 31.3447 42.7257 31.3864V32.391L42.7364 32.4113C42.73 32.4456 42.73 32.4767 42.7364 32.5045C42.7504 32.5666 42.7848 32.6255 42.8406 32.6801L43.4217 33.2595C43.4765 33.3152 43.5355 33.3495 43.5978 33.3634C43.6257 33.3709 43.6569 33.3741 43.6913 33.3741H46.3806C46.4086 33.3741 46.4354 33.3709 46.4633 33.3634C46.5321 33.3495 46.5944 33.3152 46.6502 33.2595L47.2313 32.6801C47.286 32.6255 47.3215 32.5666 47.3355 32.5045C47.3419 32.4767 47.3462 32.4456 47.3462 32.4113V29.9578C47.3462 29.93 47.343 29.9021 47.3355 29.8754C47.3215 29.8068 47.2871 29.7447 47.2313 29.689L46.6502 29.1096C46.5944 29.055 46.5321 29.0197 46.4633 29.0058C46.4354 28.9993 46.4075 28.995 46.3806 28.995H44.4388L44.2938 28.8505C44.2734 28.8301 44.2627 28.813 44.2627 28.7991V28.768L44.2519 28.7787V27.9402C44.2444 27.9402 44.2444 27.9338 44.2519 27.9198C44.2519 27.9059 44.2659 27.8856 44.2938 27.8577L44.4603 27.6917C44.4807 27.6714 44.5054 27.6607 44.5333 27.6607H45.8211V28.1779C45.8211 28.2743 45.8694 28.3225 45.9661 28.3225H47.1915C47.2334 28.3225 47.2689 28.3086 47.3 28.2807C47.3312 28.2529 47.3473 28.2186 47.3473 28.1769V27.1102L47.3365 27.0995H47.3473H47.3462Z" fill="black"/>
<path d="M18.792 15.9326H17.5569C17.5225 15.9326 17.4892 15.9465 17.458 15.9744C17.4269 16.0022 17.4108 16.0365 17.4108 16.0783V20.1874L17.3904 20.0739L16.0199 16.0772H16.0092C15.9888 15.9808 15.9394 15.9326 15.8642 15.9326H14.3176C14.2209 15.9326 14.1726 15.9808 14.1726 16.0772V23.0233C14.1726 23.0576 14.1865 23.0908 14.2145 23.1218C14.2424 23.1529 14.2768 23.1679 14.3186 23.1679H15.5527C15.5871 23.1679 15.6204 23.1529 15.6515 23.1218C15.6827 23.0908 15.6988 23.0576 15.6988 23.0233V19.5663L16.9651 23.0233C16.979 23.0576 17.0027 23.0908 17.0381 23.1218C17.0725 23.1529 17.1111 23.1679 17.1519 23.1679H18.792C18.8339 23.1679 18.8682 23.1529 18.8962 23.1218C18.9241 23.0908 18.9381 23.0576 18.9381 23.0233V16.0772C18.9381 15.9808 18.8897 15.9326 18.7931 15.9326H18.792Z" fill="black"/>
<path d="M24.7142 16.7349C24.7034 16.7038 24.6809 16.6706 24.6465 16.6363L24.0547 16.057C23.9989 16.0024 23.9366 15.967 23.8679 15.9531C23.8399 15.9467 23.812 15.9424 23.7852 15.9424H21.1065C21.0721 15.9424 21.041 15.9456 21.0131 15.9531C20.9508 15.967 20.8917 16.0013 20.8369 16.057L20.2559 16.6363C20.2 16.692 20.1657 16.7542 20.1517 16.8227C20.1442 16.8505 20.141 16.8784 20.141 16.9052V22.2159C20.141 22.2502 20.1442 22.2813 20.1517 22.3091C20.1657 22.3712 20.2 22.4301 20.2559 22.4847L20.8369 23.0641C20.8917 23.1198 20.9508 23.1541 21.0131 23.168C21.041 23.1755 21.0721 23.1787 21.1065 23.1787H23.7959C23.8238 23.1787 23.8507 23.1755 23.8786 23.168C23.9409 23.1541 24 23.1198 24.0547 23.0641L24.6465 22.4847C24.6809 22.4505 24.7034 22.4194 24.7142 22.3916C24.7249 22.3637 24.7335 22.3369 24.74 22.3091C24.7464 22.2813 24.7507 22.2502 24.7507 22.2159V16.9062C24.7507 16.8784 24.7475 16.8516 24.74 16.8238C24.7335 16.7959 24.7249 16.767 24.7142 16.7359V16.7349ZM23.2245 17.7437V21.4395C23.2245 21.4673 23.2138 21.4909 23.1934 21.5123L23.0484 21.6569H21.8444L21.6994 21.5123C21.679 21.4845 21.6682 21.4609 21.6682 21.4395V17.7233C21.6682 17.703 21.679 17.6816 21.6994 17.6612L21.8755 17.4952C21.8895 17.4749 21.9099 17.4642 21.9378 17.4642H22.9549C22.9828 17.4642 23.0065 17.4749 23.028 17.4952L23.1944 17.6612C23.2148 17.6816 23.2256 17.703 23.2256 17.7233V17.7437H23.2245Z" fill="black"/>
<path d="M31.1981 23.1786H34.4997C34.5276 23.1786 34.5555 23.1754 34.5824 23.1679C34.6511 23.154 34.7134 23.1197 34.7693 23.064L35.3503 22.4846C35.4051 22.43 35.4406 22.3711 35.4545 22.309C35.461 22.2812 35.4653 22.2501 35.4653 22.2158V20.2389H35.4545C35.447 20.211 35.4373 20.1821 35.4234 20.1511C35.4094 20.12 35.3858 20.0868 35.3503 20.0525L34.9454 19.6488L35.3503 19.2343C35.4051 19.1797 35.4406 19.1208 35.4545 19.0587C35.461 19.0309 35.4653 18.9998 35.4653 18.9655V16.9061C35.4653 16.8783 35.462 16.8515 35.4545 16.8237C35.4406 16.7551 35.4062 16.693 35.3503 16.6373L34.7693 16.0579C34.7134 16.0033 34.6511 15.968 34.5824 15.9541C34.5545 15.9476 34.5266 15.9434 34.4997 15.9434H31.1981C31.1015 15.9434 31.0531 15.9916 31.0531 16.0879V23.034C31.0531 23.1304 31.1015 23.1786 31.1981 23.1786ZM32.5793 17.4641H33.6695C33.6974 17.4641 33.7178 17.4748 33.7318 17.4951L33.9079 17.6708C33.9144 17.6847 33.9219 17.6954 33.9283 17.7018C33.9348 17.7093 33.9391 17.7158 33.9391 17.7222V18.5811C33.9391 18.6014 33.9283 18.6261 33.9079 18.6539L33.7629 18.7985H32.5793V17.4652V17.4641ZM32.5793 20.3213H33.6695C33.6899 20.3213 33.7114 20.3321 33.7318 20.3524L33.9079 20.528C33.9144 20.542 33.9219 20.5527 33.9283 20.5591C33.9348 20.5655 33.9391 20.573 33.9391 20.5794V21.4383C33.9391 21.4587 33.9283 21.4833 33.9079 21.5112L33.7629 21.6557H32.5793V20.3203V20.3213Z" fill="black"/>
<path d="M40.6968 19.5663C40.3574 18.414 40.0148 17.2574 39.669 16.0986V16.0879C39.6346 15.9916 39.5863 15.9434 39.524 15.9434H38.2889C38.233 15.9434 38.1847 15.9916 38.1439 16.0879V16.0986L36.0882 23.034C36.0742 23.0683 36.086 23.1015 36.1247 23.1326C36.1623 23.1636 36.202 23.1786 36.2439 23.1786H37.4275C37.4694 23.1786 37.507 23.1636 37.5413 23.1326C37.5757 23.1015 37.6004 23.0683 37.6144 23.034L37.8635 22.1955H39.9504L40.1996 23.034C40.2135 23.0683 40.2372 23.1015 40.2726 23.1326C40.308 23.1636 40.3456 23.1786 40.3864 23.1786H41.57C41.6119 23.1786 41.6517 23.1636 41.6892 23.1326C41.7268 23.1015 41.7397 23.0683 41.7258 23.034C41.3799 21.8742 41.0373 20.7187 40.6979 19.5663H40.6968ZM38.2781 20.7979L38.9118 18.6753L39.5347 20.7979H38.2781Z" fill="black"/>
<path d="M46.0853 23.1786C46.1132 23.1786 46.14 23.1754 46.168 23.1679C46.2367 23.154 46.299 23.1197 46.3549 23.064L46.9359 22.4846C46.9907 22.43 47.0261 22.3711 47.0401 22.309C47.0465 22.2812 47.0508 22.2501 47.0508 22.2158V16.9061C47.0508 16.8719 47.0476 16.8408 47.0401 16.813C47.0326 16.7648 46.9982 16.7059 46.9359 16.6373L46.3549 16.0579C46.2861 15.9958 46.227 15.9616 46.1787 15.9541C46.1508 15.9476 46.1196 15.9434 46.0853 15.9434H42.7837C42.687 15.9434 42.6387 15.9916 42.6387 16.0879V23.034C42.6387 23.1304 42.687 23.1786 42.7837 23.1786H46.0853ZM44.1649 17.4641H45.2443C45.2787 17.4641 45.3034 17.4748 45.3173 17.4951L45.4935 17.6708C45.4999 17.6847 45.5074 17.6954 45.5139 17.7018C45.5203 17.7093 45.5246 17.7158 45.5246 17.7222V21.4394C45.5246 21.4598 45.5139 21.4844 45.4935 21.5122L45.3485 21.6568H44.1649V17.4652V17.4641Z" fill="black"/>
<path d="M27.9696 35.9776C27.7827 35.7259 27.5947 35.4742 27.4057 35.2215L27.3821 35.1904L27.0674 35.3661L30.1789 39.3382L30.7964 40.1274C30.8533 40.0546 30.9103 39.9829 30.9661 39.9111C30.34 39.1079 29.7664 38.3647 29.2262 37.6568C28.8041 37.1021 28.3788 36.5312 27.9674 35.9786L27.9696 35.9776Z" fill="black"/>
<path d="M36.3363 44.9931C36.0162 45.007 35.7026 45.0767 35.4384 45.142L35.3944 45.1527C35.1824 45.2055 35.007 45.1423 34.8681 44.9631C33.9144 43.7305 32.9628 42.4978 32.0101 41.2641L31.8941 41.1142C31.8662 41.0788 31.8404 41.0414 31.8082 40.9953L31.7921 40.9718H31.7996L31.5321 40.6258C31.5321 40.6258 31.5225 40.6183 31.5193 40.6151C31.5021 40.5926 31.4849 40.5712 31.4677 40.5498L31.4591 40.5605H31.4666L31.2969 40.7801L31.5654 41.126C31.5794 41.141 31.5934 41.157 31.6084 41.1763C32.6771 42.5728 33.7683 43.9832 34.8842 45.4258C34.9712 45.5382 35.0679 45.655 35.1828 45.7449C35.3879 45.9045 35.6618 45.972 35.9335 45.927C36.2085 45.882 36.4491 45.731 36.5941 45.5115C36.6789 45.3829 36.6939 45.2416 36.6338 45.1356C36.579 45.0392 36.4705 44.9878 36.3352 44.9942L36.3363 44.9931ZM36.2751 45.4986L35.5361 45.6742C35.5361 45.6742 35.5286 45.6753 35.5243 45.6753C35.5018 45.6753 35.4824 45.6603 35.4771 45.6378C35.4706 45.6121 35.4867 45.5853 35.5136 45.5789L36.2525 45.4033C36.2794 45.3969 36.3051 45.4129 36.3116 45.4397C36.318 45.4654 36.3019 45.4922 36.2751 45.4986ZM36.2751 45.2673L35.4309 45.4622C35.4309 45.4622 35.4234 45.4633 35.4201 45.4633C35.3976 45.4633 35.3772 45.4483 35.3729 45.4258C35.3664 45.399 35.3836 45.3733 35.4094 45.3669L36.2536 45.172C36.2815 45.1655 36.3062 45.1827 36.3127 45.2084C36.3191 45.2352 36.3019 45.2609 36.2761 45.2673H36.2751Z" fill="black"/>
<path d="M31.3023 40.3384L32.0863 39.3382L35.1978 35.3661L34.8831 35.1904L34.8595 35.2215C34.6705 35.4742 34.4825 35.727 34.2956 35.9776C33.8843 36.5302 33.46 37.101 33.0369 37.6557C32.4504 38.4257 31.8232 39.2375 31.1315 40.1221C31.0757 40.1938 31.0187 40.2656 30.9618 40.3384C30.8899 40.4305 30.8179 40.5215 30.7449 40.6158C30.7416 40.6201 30.7363 40.6233 30.732 40.6265L30.4645 40.9713H30.4721L30.456 40.996C30.4237 41.042 30.398 41.0795 30.37 41.1148L30.254 41.2648C29.3014 42.4985 28.3487 43.7311 27.396 44.9638C27.2618 45.1384 27.2135 45.1994 27.1103 45.1994C27.0545 45.1994 26.9815 45.1812 26.8698 45.1534L26.8257 45.1426C26.5615 45.0773 26.2479 45.0077 25.9278 44.9938C25.9203 44.9938 25.9139 44.9938 25.9064 44.9938C25.7818 44.9938 25.6808 45.0452 25.6293 45.1362C25.5691 45.2422 25.5831 45.3825 25.669 45.5121C25.814 45.7317 26.0546 45.8827 26.3295 45.9276C26.3843 45.9362 26.4401 45.9416 26.4949 45.9416C26.7097 45.9416 26.917 45.873 27.0803 45.7456C27.1952 45.6556 27.2919 45.5389 27.3799 45.4264C28.4969 43.9839 29.5871 42.5735 30.6557 41.177C30.6697 41.1577 30.6847 41.1416 30.6987 41.1266L30.9758 40.7689H30.965L31.1315 40.5558L31.3012 40.3395L31.3023 40.3384ZM26.7892 45.6385C26.7838 45.661 26.7634 45.676 26.742 45.676C26.7387 45.676 26.7344 45.676 26.7301 45.6749L25.9912 45.4993C25.9654 45.4928 25.9482 45.4671 25.9547 45.4404C25.9611 45.4147 25.9869 45.3975 26.0138 45.4039L26.7527 45.5796C26.7785 45.586 26.7957 45.6117 26.7892 45.6385ZM26.8923 45.4254C26.8869 45.4479 26.8665 45.4628 26.8451 45.4628C26.8418 45.4628 26.8375 45.4629 26.8343 45.4618L25.9901 45.2669C25.9644 45.2604 25.9472 45.2347 25.9536 45.208C25.9601 45.1823 25.9848 45.1651 26.0127 45.1716L26.8569 45.3665C26.8826 45.3729 26.8998 45.3986 26.8934 45.4254H26.8923Z" fill="black"/>
</g>
<defs>
<filter id="filter0_d_1265_435" x="0" y="0" width="60.7008" height="60.709" filterUnits="userSpaceOnUse" color-interpolation-filters="sRGB">
<feFlood flood-opacity="0" result="BackgroundImageFix"/>
<feColorMatrix in="SourceAlpha" type="matrix" values="0 0 0 0 0 0 0 0 0 0 0 0 0 0 0 0 0 0 127 0" result="hardAlpha"/>
<feOffset dy="1"/>
<feGaussianBlur stdDeviation="1"/>
<feColorMatrix type="matrix" values="0 0 0 0 0 0 0 0 0 0 0 0 0 0 0 0 0 0 0.5 0"/>
<feBlend mode="normal" in2="BackgroundImageFix" result="effect1_dropShadow_1265_435"/>
<feBlend mode="normal" in="SourceGraphic" in2="effect1_dropShadow_1265_435" result="shape"/>
</filter>
<clipPath id="clip0_1265_435">
<rect width="33.4701" height="30.0076" fill="white" transform="translate(13.8761 15.9326)"/>
</clipPath>
</defs>
</svg>
