<svg width="81" height="81" viewBox="0 0 81 81" fill="none" xmlns="http://www.w3.org/2000/svg">
<g filter="url(#filter0_d_1265_631)">
<path d="M40.3489 77.7091C61.5285 77.7091 78.6979 60.5372 78.6979 39.3546C78.6979 18.1719 61.5285 1 40.3489 1C19.1694 1 2 18.1719 2 39.3546C2 60.5372 19.1694 77.7091 40.3489 77.7091Z" fill="white"/>
</g>
<g clip-path="url(#clip0_1265_631)">
<path d="M62.7722 50.129C62.5508 49.8963 62.3293 49.6605 62.0956 49.4435C62.031 49.3837 61.9234 49.3429 61.8342 49.3429C60.764 49.3366 59.6907 49.3334 58.6206 49.3429C58.5068 49.3429 58.3714 49.4089 58.2853 49.4875C58.0762 49.673 57.8886 49.8869 57.6887 50.085C57.5873 50.1856 57.5442 50.3019 57.5442 50.4466C57.5442 53.437 57.5442 56.4273 57.5442 59.4177C57.5442 59.5624 57.5903 59.6787 57.6887 59.7793C57.8856 59.9774 58.067 60.185 58.2761 60.3674C58.3653 60.446 58.4975 60.5151 58.6113 60.5151C59.6784 60.5277 60.7425 60.5246 61.8096 60.5183C61.9049 60.5183 62.028 60.49 62.0925 60.4271C62.3662 60.1535 62.6246 59.8611 62.889 59.575V50.2988C62.8521 50.2422 62.8244 50.1762 62.7783 50.129H62.7722ZM61.2161 54.9526V58.4807C61.2161 58.6914 61.0869 58.8203 60.884 58.8203C60.4319 58.8203 59.9829 58.8203 59.5339 58.8203C59.3555 58.8203 59.211 58.6756 59.211 58.4933C59.211 58.1977 59.211 57.9021 59.211 57.6065V51.4968C59.211 51.217 59.3863 51.0346 59.66 51.0346C60.0505 51.0346 60.4411 51.0346 60.8347 51.0346C61.0285 51.0346 61.2222 51.2358 61.2222 51.4371C61.2222 52.6068 61.2222 53.7797 61.2222 54.9495L61.2161 54.9526Z" fill="black"/>
<path d="M22.5507 64.4701C22.5783 64.4921 22.606 64.4953 22.6368 64.4984C23.3256 64.5456 24.0114 64.6022 24.7003 64.6368C26.3548 64.7154 28.0123 64.8003 29.6699 64.8443C31.9149 64.9072 34.1598 64.9355 36.4048 64.9827C36.6293 64.9858 36.8538 64.9984 37.0752 65.0078H43.2719C43.3211 65.0015 43.3672 64.9921 43.4164 64.9889C46.0273 64.9355 48.6413 64.9009 51.2522 64.8223C53.245 64.7625 55.2408 64.6431 57.2336 64.5487C57.3566 64.5424 57.4765 64.533 57.5996 64.5236C57.7133 64.5141 57.8271 64.5016 57.9409 64.4921C57.9409 64.4795 57.9409 64.467 57.9409 64.4544C46.1442 63.8066 34.3505 63.8035 22.5537 64.4733L22.5507 64.4701Z" fill="black"/>
<path d="M20.6471 40.6482C21.5604 40.7929 22.4738 40.9344 23.3841 41.0759C24.3743 41.2299 25.3645 41.3872 26.3548 41.5444C27.3973 41.7079 28.4398 41.8714 29.4823 42.0349C30.6017 42.211 31.7242 42.3871 32.8436 42.5632C33.8953 42.7298 34.9502 42.8934 36.0019 43.06C37.1797 43.2455 38.3576 43.4342 39.5354 43.6166C39.806 43.6575 40.0859 43.7424 40.3473 43.7046C41.4421 43.5568 42.5307 43.3713 43.6224 43.1984C44.7326 43.0223 45.8428 42.8462 46.953 42.6701C48.2507 42.4657 49.5516 42.2613 50.8493 42.0569C52.5346 41.7928 54.2198 41.5224 55.9051 41.2551C57.2336 41.0444 58.559 40.8369 59.8876 40.6293C59.9644 40.6168 59.9983 40.5916 60.0044 40.5099C60.0229 40.274 60.0444 40.0413 60.0659 39.8086C60.1367 39.0068 60.2105 38.205 60.2843 37.4031C60.3673 36.4818 60.4534 35.5605 60.5364 34.6423C60.6072 33.8467 60.681 33.048 60.7517 32.2525C60.8347 31.3374 60.9208 30.4224 61.0039 29.5042C61.09 28.5703 61.1761 27.6333 61.2591 26.6962C61.2807 26.4478 61.3022 26.2025 61.3237 25.9321H46.6239C46.873 25.6554 46.9407 25.5422 46.9714 25.3567C47.0514 24.8661 46.7777 24.4165 46.2979 24.2718C46.0427 24.1932 45.7844 24.1272 45.4922 24.0423C46.1903 23.6744 46.7285 23.1744 47.1375 22.5047C47.0052 22.4858 46.9037 22.4732 46.7961 22.4575C46.9868 22.0833 47.1744 21.7185 47.3681 21.3412C47.1682 21.3035 47.0083 21.2752 46.8269 21.2406C47.1621 20.7689 47.445 20.3004 47.6418 19.7312C47.1405 19.7878 46.6731 19.8381 46.2026 19.8916C46.221 19.8036 46.2395 19.7124 46.2672 19.5866C45.932 19.6117 45.6152 19.6149 45.3015 19.6621C44.9909 19.7092 44.6896 19.7973 44.3728 19.8727C44.5419 19.464 44.7049 19.0583 44.7019 18.5992C44.5819 18.5898 44.4712 18.5804 44.379 18.5709C44.4343 18.2125 44.4897 17.8666 44.545 17.5207C44.5296 17.505 44.5143 17.4892 44.4958 17.4735C44.0776 17.571 43.6593 17.6716 43.2319 17.7722C43.2411 17.681 43.2503 17.5899 43.2626 17.4924C43.0228 17.5364 42.8013 17.5741 42.5676 17.6182C42.4661 16.9547 42.3031 16.3258 42.0448 15.7158C41.9618 15.7724 41.8941 15.8164 41.8172 15.8698C41.6942 15.4328 41.5681 15.0082 41.3191 14.6026C41.2422 14.6938 41.1745 14.7724 41.113 14.8447C40.827 14.3951 40.5472 13.958 40.2458 13.4863C39.9413 13.9643 39.6615 14.4045 39.3601 14.8762C39.2924 14.785 39.2309 14.7032 39.1694 14.6215C39.151 14.6215 39.1325 14.6215 39.1172 14.6215C38.9603 15.0303 38.8066 15.439 38.6497 15.851C38.5851 15.8069 38.5175 15.7598 38.4437 15.7126C38.1884 16.3289 38.0224 16.9578 37.9209 17.615C37.681 17.571 37.4596 17.5301 37.2259 17.4892C37.2382 17.5993 37.2443 17.6873 37.2566 17.7942C36.823 17.6559 36.4109 17.5238 35.9373 17.4955C35.9958 17.8666 36.0511 18.2125 36.1095 18.5678C36.0111 18.5772 35.9035 18.5866 35.7866 18.5961C35.7805 19.0615 35.9496 19.464 36.1249 19.8947C35.4945 19.6683 34.8764 19.574 34.2275 19.6086C34.2521 19.7218 34.2705 19.8161 34.2951 19.923C33.8123 19.8004 33.3479 19.7501 32.859 19.7627C33.0496 20.3067 33.3356 20.7721 33.6616 21.2374C33.4771 21.272 33.3141 21.3003 33.1204 21.3349C33.3172 21.7154 33.5048 22.0801 33.6954 22.4481C33.5878 22.4638 33.4802 22.4795 33.3633 22.4984C33.3848 22.5361 33.3971 22.5644 33.4125 22.5896C33.7754 23.1493 34.2367 23.6021 34.8118 23.9322C34.8579 23.9574 34.9133 23.9857 34.9348 24.0297C35.1285 24.4259 35.476 24.5769 35.8727 24.6366C36.048 24.6618 36.2325 24.6397 36.414 24.6397C36.3402 24.8567 36.2602 25.058 36.0296 25.1806C35.6759 25.3724 35.3407 25.5988 34.9994 25.8189C34.8733 25.9007 34.7472 25.9353 34.5996 25.9353C32.0102 25.9321 29.4239 25.929 26.8345 25.929C24.3282 25.929 21.8249 25.929 19.3185 25.929H19.1679C19.6138 30.8375 20.0597 35.724 20.5025 40.6105C20.5579 40.6231 20.5979 40.6356 20.6409 40.6419L20.6471 40.6482ZM52.9405 29.8847C53.3188 29.8847 53.694 29.891 54.0722 29.8784C54.226 29.8721 54.3059 29.9319 54.3767 30.0671C55.1147 31.4915 55.862 32.916 56.6062 34.3373C56.6339 34.3876 56.6616 34.4379 56.7169 34.4819V34.3247C56.7169 33.1927 56.72 32.0638 56.7108 30.9318C56.7108 30.7243 56.68 30.5105 56.6247 30.3124C56.5847 30.1677 56.4771 30.0451 56.391 29.9004H57.741C57.741 29.9004 57.7564 29.9193 57.7656 29.9256C57.5319 30.0765 57.4642 30.3155 57.4366 30.5639C57.412 30.7683 57.4058 30.9727 57.4058 31.1771C57.4058 33.0889 57.4058 35.0008 57.4058 36.9094C57.4058 37.1107 57.4058 37.0887 57.2059 37.117C56.8523 37.1673 56.6462 37.0415 56.4801 36.7019C55.8559 35.4504 55.2008 34.2178 54.5581 32.9789C54.4043 32.6833 54.2567 32.3877 54.1091 32.0921C54.0968 32.0921 54.0814 32.0953 54.0691 32.0984C54.0691 32.1896 54.0691 32.2808 54.0691 32.372C54.0691 33.548 54.0722 34.724 54.0753 35.9001C54.0753 36.0604 54.0753 36.2208 54.0968 36.378C54.1337 36.6485 54.2014 36.9063 54.472 37.0541C54.4658 37.0667 54.4597 37.0761 54.4535 37.0887H53.0604C53.0604 37.073 53.0512 37.0572 53.0543 37.0509C53.3218 36.8371 53.368 36.5258 53.368 36.2177C53.3741 34.4756 53.3772 32.7367 53.368 30.9947C53.368 30.5513 53.205 30.174 52.799 29.9507C52.7929 29.9476 52.7929 29.9319 52.7837 29.9004C52.839 29.8941 52.8913 29.8816 52.9436 29.8816L52.9405 29.8847ZM47.4204 36.834C47.5496 36.5447 47.6941 36.2585 47.7771 35.9504C48.2999 33.9977 48.8073 32.0387 49.3148 30.0828C49.3547 29.9319 49.4101 29.869 49.5731 29.8816C49.7822 29.8973 49.9944 29.891 50.2035 29.8816C50.3265 29.8753 50.3727 29.9224 50.4034 30.0388C50.8432 31.7148 51.2891 33.3908 51.7319 35.0636C51.7965 35.3058 51.8519 35.5479 51.9257 35.7869C52.0641 36.2522 52.1809 36.7334 52.5561 37.0981H50.5879C50.9139 36.856 50.8278 36.5478 50.7571 36.2428C50.6863 35.9378 50.6064 35.6328 50.5356 35.3278C50.5141 35.2334 50.4772 35.1957 50.3788 35.1957C49.8499 35.1989 49.324 35.1989 48.795 35.1957C48.712 35.1957 48.6597 35.2114 48.6382 35.3089C48.5644 35.6391 48.4752 35.9661 48.4076 36.2994C48.3799 36.4346 48.3645 36.5856 48.3983 36.7145C48.4322 36.8466 48.5336 36.9598 48.6075 37.0887C48.5552 37.1296 47.4019 37.1484 47.2236 37.0824C47.2943 36.9975 47.3804 36.9252 47.4235 36.834H47.4204ZM46.6762 29.913C46.3379 30.1614 46.3071 30.501 46.3071 30.8343C46.2979 32.611 46.301 34.3876 46.3071 36.1611C46.3071 36.334 46.3379 36.5132 46.3902 36.6768C46.4363 36.8214 46.5347 36.9472 46.6116 37.0855C46.5532 37.1296 45.0463 37.1516 44.8525 37.0855C44.911 37.0006 44.994 36.9283 45.0217 36.8371C45.077 36.6516 45.1385 36.4598 45.1385 36.2711C45.1478 34.7901 45.1447 33.309 45.1232 31.8248C44.5942 33.6455 44.0653 35.4693 43.5332 37.2899C43.5179 37.2899 43.5025 37.2931 43.4871 37.2962C42.869 35.4567 42.2478 33.614 41.6297 31.7745C41.6204 31.7745 41.6112 31.7745 41.6051 31.7745V32.1487C41.6051 33.3939 41.6051 34.6391 41.6051 35.8843C41.6051 36.0479 41.6143 36.2145 41.6389 36.378C41.6789 36.6485 41.7434 36.9094 42.0079 37.0604C42.0048 37.073 41.9987 37.0855 41.9956 37.0981H40.5256C40.9469 36.7711 40.9408 36.3309 40.9408 35.9032C40.9469 34.287 40.9439 32.6707 40.9439 31.0544C40.9439 30.9192 40.9439 30.784 40.9285 30.652C40.8916 30.369 40.8424 30.086 40.5441 29.9382L40.5625 29.9036C40.6148 29.8973 40.6671 29.8847 40.7225 29.8847C41.1561 29.8847 41.5928 29.8879 42.0294 29.8816C42.1586 29.8816 42.214 29.9193 42.2539 30.0482C42.6968 31.501 43.1458 32.9537 43.5948 34.4033C43.604 34.4316 43.6132 34.4599 43.6347 34.5196C43.7085 34.2744 43.7762 34.0574 43.8408 33.8373C44.216 32.5669 44.5911 31.2966 44.9663 30.0262C44.994 29.935 45.0248 29.8816 45.1355 29.8847C45.5845 29.891 46.0365 29.8847 46.4855 29.8879C46.5347 29.8879 46.5839 29.9004 46.67 29.913H46.6762ZM39.4093 25.1397C39.4093 25.1208 39.4155 25.102 39.4155 25.0863C39.7107 25.0863 40.0059 25.0863 40.3011 25.0863C40.3196 25.0863 40.338 25.0957 40.3534 25.1083C40.7409 25.3787 41.1868 25.4919 41.6327 25.6082C40.8762 25.517 40.1135 25.4699 39.4093 25.1397ZM41.765 25.1397C41.765 25.1397 41.765 25.1114 41.768 25.0957C41.7957 25.0894 41.8265 25.0831 41.8542 25.08C41.9034 25.08 41.9526 25.08 42.0018 25.08C42.3862 25.0548 42.7398 25.0988 43.0935 25.3032C43.3672 25.4636 43.6993 25.517 44.0099 25.6208C43.2472 25.5139 42.4784 25.4667 41.768 25.1397H41.765ZM44.6157 21.3286C44.6772 21.2877 44.7295 21.2091 44.7541 21.1368C44.8433 20.8727 44.9356 20.6148 45.1324 20.4167C45.0832 20.6274 45.0309 20.8412 44.9756 21.0739C45.3938 20.8853 45.769 20.7155 46.1472 20.5457C46.1565 20.5645 46.1657 20.5802 46.1749 20.5991C45.5476 20.9985 44.8894 21.3506 44.3451 21.9135C44.9017 22.0204 45.4307 21.9764 45.9627 21.9324C45.4737 22.0833 44.9756 22.1745 44.4651 22.165C44.2344 22.1619 44.0007 22.1273 43.8654 22.4292C43.8039 22.3128 43.7608 22.2311 43.7147 22.143C43.9884 21.838 44.2744 21.555 44.6096 21.3255L44.6157 21.3286ZM43.7547 18.181C43.3395 18.6118 42.9243 19.0426 42.5092 19.4734C42.5184 19.4891 42.5246 19.5048 42.5338 19.5206H43.5271C43.3918 19.5709 43.2688 19.6306 43.1365 19.6589C42.9028 19.7061 42.666 19.7375 42.4262 19.7564C42.3339 19.7658 42.2724 19.791 42.2201 19.8664C42.1402 19.9828 42.051 20.0991 41.9618 20.2218C41.888 20.184 41.8172 20.1463 41.725 20.096C42.3031 19.335 42.9582 18.681 43.7547 18.181ZM38.5913 17.1182C38.905 17.8508 39.3816 18.4137 40.1258 18.7816C40.1258 18.3697 40.1289 17.9923 40.1197 17.615C40.1197 17.5741 40.052 17.527 40.0059 17.4987C39.5169 17.1748 39.2586 16.7125 39.2063 16.1214C39.4278 16.5522 39.6799 16.9547 40.1166 17.2251C40.1474 16.6025 40.1812 15.9988 40.212 15.395C40.2335 15.395 40.255 15.395 40.2765 15.395C40.3073 15.9956 40.3411 16.5993 40.3749 17.2251C40.8055 16.9641 41.0607 16.5679 41.2945 16.134C41.2791 16.222 41.2698 16.3101 41.2514 16.3981C41.1407 16.8666 40.8916 17.2377 40.4887 17.4892C40.3903 17.5521 40.3596 17.615 40.3626 17.7282C40.3688 18.0678 40.3626 18.4074 40.3626 18.7816C41.1099 18.4137 41.5866 17.8446 41.9064 17.1213C41.8634 17.5081 41.7158 17.854 41.5005 18.1684C41.2391 18.5489 40.9008 18.8382 40.4887 19.0363C40.4118 19.074 40.3811 19.1181 40.3842 19.2061C40.3903 19.3853 40.3842 19.5646 40.3842 19.7532H40.0951C40.0951 19.5772 40.0889 19.3979 40.0951 19.2218C40.1012 19.1212 40.0643 19.074 39.9782 19.03C39.2525 18.6558 38.7758 18.0741 38.5851 17.2565C38.579 17.2282 38.5759 17.1968 38.5728 17.1685C38.5728 17.1591 38.579 17.1496 38.5882 17.1182H38.5913ZM38.6897 20.0142C38.4621 20.1274 38.456 20.1337 38.3237 19.9356C38.2346 19.8036 38.1361 19.7501 37.9762 19.7501C37.6287 19.7501 37.2935 19.6683 36.9798 19.5174H37.9547L37.9855 19.4765C37.5703 19.0457 37.1551 18.6149 36.7461 18.1873C37.0413 18.2376 38.3545 19.464 38.6897 20.0111V20.0142ZM34.2705 21.9355C34.7441 21.8223 35.1808 21.7028 35.596 21.4167C35.1562 21.1337 34.7349 20.8632 34.3136 20.5897C34.3197 20.5739 34.329 20.5582 34.3351 20.5425C34.7164 20.7123 35.0978 20.8853 35.5099 21.0708C35.4607 20.8475 35.4115 20.6368 35.3622 20.4199C35.5222 20.5802 35.6236 20.7783 35.6821 20.9922C35.7344 21.1808 35.8174 21.3255 35.9896 21.4135C36.0327 21.4355 36.0665 21.4733 36.1065 21.5047C35.516 21.728 34.9409 21.9732 34.2674 21.9355H34.2705ZM36.414 24.1209C36.3371 24.1964 36.2664 24.3316 36.1926 24.3347C35.9927 24.3347 35.7897 24.2876 35.5898 24.2467C35.5714 24.2435 35.5529 24.1492 35.5621 24.0989C35.5683 24.0643 35.6144 24.036 35.6544 23.9951C35.5375 23.9857 35.4238 23.9417 35.3838 24.1115C35.2054 23.9983 35.1716 23.8253 35.1808 23.6524C35.2116 23.0266 35.4607 22.4889 35.8758 22.0393C35.9835 21.9229 36.1649 21.8537 36.3248 21.8066C36.5278 21.75 36.7061 21.6682 36.8661 21.5267C37.5395 20.9261 38.2684 20.4167 39.151 20.1998C40.0674 19.9734 40.9685 20.0048 41.8142 20.489C42.5092 20.8884 43.0228 21.4764 43.3918 22.1839C43.6378 22.6587 43.8285 23.165 44.0284 23.6618C44.0745 23.7813 44.1299 23.8599 44.2436 23.8976C44.8679 24.1083 45.4922 24.3284 46.1196 24.5297C46.3994 24.6177 46.6116 24.7624 46.6731 25.0642C46.7592 25.4856 46.424 25.8221 45.9781 25.7466C45.7105 25.6994 45.443 25.6208 45.1908 25.517C44.7357 25.3284 44.2898 25.1051 43.8408 24.9007C43.6809 24.8284 43.6224 24.7152 43.6194 24.5297C43.6132 23.9354 43.4256 23.4008 43.0597 22.9386C43.0258 22.8946 42.9889 22.8568 42.9336 22.8285C42.9551 22.8694 42.9736 22.9071 42.9951 22.9449C43.2811 23.4637 43.3364 24.0108 43.2073 24.5863C43.1888 24.6712 43.1611 24.7215 43.0566 24.7215C41.9403 24.7184 40.8239 24.7215 39.7107 24.7184C39.6922 24.7184 39.6738 24.7152 39.64 24.7121C39.6092 24.5643 39.5784 24.4165 39.5415 24.2435C40.0582 24.3505 40.5564 24.3756 41.0392 24.1964C40.9254 23.9291 40.7993 23.6807 40.7101 23.4197C40.5564 22.9732 40.5133 22.5109 40.6179 22.0456C40.7501 21.467 41.113 21.1368 41.6942 21.0519C41.7557 21.0425 41.8172 21.0299 41.8788 21.011C41.4175 20.9419 40.99 21.0016 40.6333 21.3506C40.5994 21.3821 40.5287 21.4009 40.4857 21.3884C39.7384 21.2154 38.9634 21.4827 38.4621 21.8569C38.6835 21.8066 38.8804 21.75 39.0803 21.7185C39.2832 21.6871 39.4893 21.6651 39.6922 21.6588C39.9044 21.6525 40.1105 21.6871 40.3104 21.8034C40.2827 21.9166 40.2519 22.0235 40.2273 22.1336C40.1012 22.7028 40.1658 23.2562 40.3442 23.8033C40.3872 23.9322 40.3534 23.9983 40.2366 24.0108C40.009 24.0329 39.7814 24.0423 39.5538 24.0454C39.5231 24.0454 39.4831 23.9888 39.4616 23.948C39.314 23.6712 39.0649 23.4354 38.7481 23.2939C39.0741 23.7247 39.2525 24.1806 39.2986 24.7058H36.7369C36.7738 24.646 36.7984 24.5894 36.8384 24.5454C37.0598 24.3316 37.2997 24.1838 37.6256 24.2718C37.7456 24.3033 37.8747 24.297 38.0039 24.2781C37.9793 24.2656 37.9547 24.253 37.9301 24.2435C37.6103 24.1052 37.4903 23.8725 37.5918 23.536C37.6718 23.2593 37.6533 22.9983 37.4596 22.7908C37.3304 22.6524 37.1459 22.5738 36.9706 22.4543C36.9891 22.2845 37.109 22.1808 37.3058 22.2154C37.4596 22.2437 37.3796 22.3663 37.3827 22.4669C37.475 22.3789 37.5149 22.2908 37.4688 22.1713C37.4227 22.055 37.3273 22.0456 37.2259 22.0487C36.9368 22.0581 36.8507 22.1305 36.7492 22.4198C36.7307 22.4701 36.6754 22.5267 36.6293 22.5392C36.3986 22.6053 36.2172 22.7373 36.0696 22.9292C36.0327 22.9763 35.9681 23.0141 35.9096 23.0235C35.7036 23.0549 35.6329 23.143 35.6482 23.3725C35.6575 23.3725 35.6667 23.3725 35.6759 23.3725C35.9835 23.3254 36.1464 23.0958 36.3433 22.882C36.5401 22.665 36.8169 22.6493 37.0782 22.7751C37.312 22.8851 37.4381 23.0801 37.435 23.3474C37.435 23.7687 37.0229 24.058 36.6385 23.9102C36.6047 23.8976 36.5678 23.8851 36.5124 23.8976C36.5432 23.9354 36.577 23.9731 36.6385 24.0454C36.497 24.0171 36.3832 23.9951 36.2264 23.9637C36.3064 24.0297 36.3556 24.0706 36.4171 24.124L36.414 24.1209ZM39.2801 25.6051C38.5206 25.5076 37.7517 25.4667 37.0444 25.1303C37.0444 25.1146 37.0506 25.0957 37.0506 25.08C37.3458 25.08 37.641 25.08 37.9363 25.08C37.9547 25.08 37.9762 25.0894 37.9916 25.0988C38.3822 25.3693 38.8281 25.4887 39.2801 25.6051ZM36.3925 29.8753C37.4104 29.8753 38.4283 29.8753 39.4431 29.8753C39.5446 29.8753 39.6092 29.891 39.6061 30.0199C39.6 30.5293 39.6061 31.0419 39.6031 31.5513C39.6031 31.5953 39.5907 31.6393 39.5846 31.6865C39.5692 31.6865 39.5538 31.6865 39.5354 31.6896C39.5231 31.6456 39.5139 31.6047 39.4985 31.5639C39.4247 31.3689 39.3693 31.1676 39.2678 30.9884C39.1664 30.8029 38.9849 30.718 38.7727 30.7211C38.4898 30.7211 38.2069 30.7243 37.9209 30.7211C37.8225 30.7211 37.7825 30.7494 37.7825 30.8563C37.7856 31.5356 37.7856 32.2179 37.7825 32.8971C37.7825 32.9977 37.8163 33.026 37.9086 33.026C38.1238 33.0197 38.3391 33.026 38.5544 33.026C38.8619 33.026 39.0034 32.9128 39.0956 32.6047C39.1049 32.5764 39.1264 32.5512 39.1756 32.5323V34.3436L39.1356 34.3498C39.1233 34.3247 39.1079 34.3027 39.0987 34.2744C39.0157 33.9882 38.8988 33.8813 38.6128 33.8656C38.3729 33.853 38.1331 33.8656 37.8932 33.8625C37.8225 33.8625 37.7856 33.8845 37.7856 33.9662C37.7856 34.7209 37.7886 35.4756 37.7917 36.2302C37.7917 36.2397 37.8009 36.2491 37.7979 36.246C38.2223 36.246 38.6405 36.2743 39.0557 36.2365C39.3939 36.2051 39.5569 35.9189 39.6769 35.6234C39.7261 35.5039 39.7568 35.3781 39.7999 35.2555C39.8122 35.2177 39.8337 35.1831 39.8521 35.1454C39.8675 35.1485 39.8798 35.1517 39.8952 35.1548C39.8952 35.1957 39.9044 35.2334 39.9014 35.2743C39.8429 35.856 39.7845 36.4378 39.7168 37.0164C39.7138 37.0541 39.6492 37.1075 39.6061 37.117C39.5323 37.1327 39.4493 37.1233 39.3724 37.1233C38.4098 37.1233 37.4442 37.1233 36.4816 37.1233C36.4171 37.1233 36.3525 37.1138 36.251 37.1044C36.6323 36.7805 36.6231 36.3592 36.6231 35.9535C36.6293 34.3027 36.6262 32.6518 36.6231 31.001C36.6231 30.8563 36.6108 30.7117 36.5893 30.5671C36.5524 30.3155 36.4755 30.0828 36.2449 29.9099C36.291 29.9004 36.3402 29.8847 36.3863 29.8847L36.3925 29.8753ZM31.9364 29.8973C31.9856 29.891 32.0317 29.8753 32.0809 29.8753C33.105 29.8753 34.126 29.8753 35.1501 29.8721C35.2485 29.8721 35.2915 29.9036 35.2915 30.0105C35.2884 30.5293 35.2915 31.0513 35.2884 31.5733C35.2884 31.6142 35.2761 31.655 35.2669 31.6928L35.2208 31.6991C35.2023 31.633 35.187 31.567 35.1654 31.501C35.1101 31.3469 35.067 31.1865 34.9932 31.0419C34.8794 30.8249 34.6918 30.7117 34.4397 30.7148C34.166 30.7211 33.8923 30.7211 33.6186 30.7148C33.514 30.7148 33.471 30.7369 33.474 30.8563C33.4802 31.5324 33.4771 32.2085 33.474 32.8814C33.474 32.9851 33.5048 33.0229 33.6063 33.0197C33.8154 33.0134 34.0276 33.0197 34.2367 33.0197C34.5504 33.0197 34.6888 32.9128 34.7841 32.6078C34.7933 32.5764 34.8118 32.5449 34.8271 32.5166L34.8671 32.5261V34.3404C34.8671 34.3404 34.8395 34.3467 34.8241 34.3498C34.8087 34.3121 34.7933 34.2807 34.781 34.2429C34.7011 33.9819 34.5719 33.8687 34.3044 33.8593C34.0645 33.8499 33.8246 33.8593 33.5847 33.8562C33.5171 33.8562 33.474 33.8719 33.474 33.9536C33.474 34.7052 33.474 35.4536 33.4771 36.2051C33.4771 36.2177 33.4863 36.2334 33.4956 36.2648H33.8092C34.0307 36.2648 34.249 36.2585 34.4704 36.2648C34.8948 36.2774 35.1747 36.0667 35.3376 35.68C35.393 35.5479 35.4361 35.4095 35.4853 35.2743C35.5006 35.2303 35.516 35.1863 35.5345 35.1454L35.5806 35.1517C35.5837 35.2051 35.596 35.2586 35.5898 35.3121C35.5498 35.724 35.5037 36.1359 35.4607 36.5478C35.4453 36.6862 35.4207 36.8245 35.4176 36.9629C35.4145 37.073 35.3776 37.117 35.27 37.1138C35.1439 37.1075 35.0147 37.1138 34.8887 37.1138C33.9784 37.1138 33.0681 37.1138 32.1578 37.1138C32.0963 37.1138 32.0379 37.1044 31.9425 37.095C32.3331 36.7554 32.3116 36.3183 32.3147 35.9001C32.3239 34.2744 32.3208 32.6487 32.3147 31.023C32.3147 30.8626 32.3024 30.7023 32.2777 30.545C32.2378 30.2998 32.1609 30.0734 31.921 29.9382C31.9272 29.9256 31.9333 29.913 31.9395 29.9036L31.9364 29.8973ZM27.7786 29.8941H29.5408C29.4608 30.0105 29.3685 30.0985 29.3316 30.2086C29.2732 30.391 29.2209 30.5859 29.2209 30.7746C29.2117 32.5638 29.2148 34.3561 29.2117 36.1453C29.2117 36.1736 29.2179 36.2051 29.2209 36.2302C29.2332 36.2397 29.2394 36.2491 29.2455 36.2491C29.6422 36.246 30.0359 36.2491 30.4295 36.2302C30.6479 36.2208 30.8293 36.0919 30.9308 35.9032C31.0661 35.6485 31.1676 35.3718 31.2844 35.1014C31.3029 35.0542 31.3213 35.0102 31.3398 34.963C31.3552 34.963 31.3705 34.9693 31.3859 34.9693C31.389 35.0039 31.3982 35.0385 31.3951 35.0699C31.3367 35.7114 31.2721 36.3529 31.2137 36.9943C31.2045 37.1075 31.1368 37.1013 31.0599 37.1044C30.7124 37.1044 30.3649 37.1044 30.0174 37.1044C29.3316 37.1044 28.6489 37.1044 27.9631 37.1044C27.9078 37.1044 27.8524 37.095 27.7663 37.0887C28.1138 36.7239 28.0769 36.2931 28.0923 35.8718C28.0954 35.7711 28.0954 35.6705 28.0954 35.573C28.0954 33.9882 28.0923 32.4034 28.0862 30.8186C28.0862 30.6865 28.0708 30.5482 28.0431 30.4193C28.0031 30.2275 27.9508 30.0419 27.754 29.935C27.7602 29.9193 27.7663 29.9036 27.7725 29.891L27.7786 29.8941ZM29.6422 40.5161C30.3649 40.6105 31.0845 40.7017 31.8072 40.7991C32.4592 40.884 33.1142 40.9721 33.7662 41.0601C34.4243 41.145 35.0855 41.2268 35.7436 41.3117C36.4601 41.406 37.1767 41.5035 37.8932 41.5978C38.5513 41.6827 39.2125 41.7519 39.8675 41.8588C40.338 41.9374 40.7901 41.8242 41.2483 41.7739C41.9064 41.7016 42.5645 41.6073 43.2257 41.5224C43.9023 41.4343 44.5819 41.3463 45.2585 41.2582C45.8366 41.1859 46.4117 41.1136 46.9868 41.0413C47.6541 40.9564 48.3245 40.8683 48.9919 40.7803C49.7269 40.6859 50.4649 40.5948 51.203 40.4973C52.0302 40.3904 52.8606 40.2835 53.6878 40.1765C54.4043 40.0854 55.1209 39.9942 55.8405 39.9061C55.8712 39.903 55.9081 39.9061 55.9389 39.9061V39.9313C55.4223 40.013 54.9025 40.1011 54.3828 40.1797C53.6386 40.296 52.8975 40.4092 52.1532 40.5256C51.2061 40.6734 50.2619 40.818 49.3148 40.9658C48.4568 41.101 47.5988 41.2362 46.7408 41.3714C45.7505 41.5255 44.7634 41.6764 43.7731 41.8337C42.9612 41.9594 42.1525 42.0884 41.3406 42.2142C41.0023 42.2676 40.6671 42.3431 40.3257 42.3619C40.0705 42.3745 39.8122 42.3148 39.5569 42.2739C38.8342 42.1607 38.1115 42.0412 37.3889 41.928C36.6508 41.8117 35.9127 41.6953 35.1747 41.579C34.2521 41.4343 33.3326 41.2897 32.41 41.1419C31.6227 41.0161 30.8385 40.8872 30.0513 40.7614C29.2701 40.6356 28.489 40.5161 27.7079 40.3935C26.7822 40.2457 25.8566 40.0979 24.9309 39.947C24.7618 39.9187 24.5957 39.8935 24.4266 39.8432C24.6203 39.8652 24.8141 39.8841 25.0047 39.9093C25.752 40.0067 26.4962 40.1011 27.2435 40.2017C28.0431 40.3086 28.8396 40.4155 29.6392 40.5193L29.6422 40.5161ZM23.0119 36.5258C23.0489 36.378 23.0612 36.2208 23.0612 36.0667C23.0673 35.5573 23.0612 35.0448 23.0612 34.5354V34.331C23.2856 34.3687 23.4886 34.4002 23.6947 34.4379C23.8392 34.463 23.9807 34.5039 24.1283 34.5134C24.2544 34.5259 24.279 34.5857 24.279 34.6989C24.2759 35.1548 24.279 35.6108 24.279 36.0636C24.279 36.5698 24.7556 36.8497 25.1954 36.6044C25.343 36.5227 25.4137 36.3875 25.4137 36.2208C25.4199 35.6894 25.4199 35.1611 25.4137 34.6297C25.4137 34.4064 25.2907 34.2304 25.1062 34.1329C24.8356 33.9914 24.5465 33.8782 24.2605 33.7618C24.0514 33.6769 23.8392 33.6078 23.627 33.5323C23.2272 33.3939 23.0458 33.0889 23.0427 32.677C23.0335 31.9884 23.0366 31.2966 23.0427 30.6079C23.0458 30.2746 23.2149 30.0388 23.5378 29.9696C23.8453 29.9004 24.1652 29.8501 24.4789 29.8501C25.3 29.8438 26.1211 29.869 26.9421 29.8816C26.9791 29.8816 27.016 29.8941 27.0713 29.9004C26.8068 30.218 26.7945 30.5891 26.7853 30.957C26.773 31.4381 26.7853 31.916 26.7853 32.3971V32.5952C26.5485 32.5575 26.3332 32.5229 26.118 32.4883C25.9734 32.4632 25.832 32.4254 25.6844 32.4097C25.586 32.4003 25.5521 32.3625 25.5521 32.2619C25.5552 31.8123 25.5521 31.3626 25.5521 30.9098C25.5521 30.4381 25.4445 30.3312 24.977 30.3312C24.6572 30.3312 24.5035 30.4224 24.4481 30.652C24.4358 30.7054 24.4327 30.762 24.4327 30.8155C24.4327 31.2746 24.4358 31.7368 24.4327 32.1959C24.4297 32.5135 24.565 32.7587 24.8325 32.8908C25.1124 33.0292 25.4137 33.1172 25.7059 33.2336C25.955 33.331 26.2102 33.4191 26.4501 33.5386C26.6961 33.6612 26.8191 33.8719 26.813 34.1706C26.8038 34.8813 26.813 35.5919 26.8099 36.3026C26.8099 36.7491 26.6377 36.9849 26.2072 37.0698C25.915 37.1296 25.6167 37.1736 25.3215 37.1704C24.608 37.161 23.8976 37.1201 23.1842 37.0918C23.0581 37.0855 22.932 37.0918 22.8182 37.0918C22.8889 36.8937 22.9689 36.7145 23.015 36.529L23.0119 36.5258Z" fill="black"/>
<path d="M22.6829 59.4986C22.689 58.9892 22.686 58.4766 22.686 57.9672C22.686 57.8194 22.6275 57.7534 22.483 57.7534C22.0617 57.7534 21.6404 57.7503 21.2221 57.7534C21.0776 57.7534 21.0222 57.8163 21.0222 57.9672C21.0222 58.1465 21.0222 58.3288 21.0222 58.5081C21.0222 58.6747 20.8808 58.8162 20.7147 58.8162C20.3611 58.8162 20.0105 58.8162 19.6568 58.8162C19.3862 58.8162 19.2632 58.6873 19.2632 58.4043V51.562C19.2632 51.5116 19.2632 51.4613 19.2632 51.411C19.2724 51.2381 19.4846 51.0337 19.6507 51.0337C19.9674 51.0337 20.2873 51.0368 20.604 51.0337C20.7147 51.0337 20.7947 51.0683 20.8746 51.1469C20.9761 51.2475 21.0376 51.3481 21.0192 51.4991C21.0069 51.6217 21.0161 51.7475 21.0192 51.8733C21.0192 52.0651 21.0684 52.1154 21.2498 52.1154C21.6496 52.1154 22.0525 52.1154 22.4523 52.1154C22.6275 52.1154 22.6829 52.0588 22.6829 51.8858C22.6829 51.4016 22.6921 50.9142 22.6767 50.43C22.6737 50.3168 22.6183 50.1847 22.5445 50.0998C22.3538 49.8797 22.1478 49.669 21.9325 49.474C21.8495 49.3986 21.7203 49.3388 21.6096 49.3388C20.6255 49.3294 19.6415 49.3325 18.6604 49.3325C18.5344 49.3325 18.4359 49.3734 18.3468 49.4646C18.1622 49.6564 17.9777 49.8514 17.784 50.0369C17.6641 50.1595 17.6118 50.2979 17.6118 50.4771C17.6148 51.9613 17.6118 53.4486 17.6118 54.9328C17.6118 56.417 17.6118 57.9232 17.6118 59.42C17.6118 59.5583 17.6487 59.6715 17.7471 59.769C17.947 59.9671 18.1438 60.1684 18.3375 60.3727C18.4359 60.4765 18.5528 60.5237 18.6912 60.5237C19.6538 60.5237 20.6194 60.5268 21.5819 60.5174C21.6957 60.5174 21.831 60.4702 21.9141 60.3948C22.157 60.1746 22.3784 59.9357 22.5999 59.6967C22.646 59.6464 22.6798 59.5678 22.6798 59.4986H22.6829Z" fill="black"/>
<path d="M45.0709 55.2635C45.1908 55.1503 45.2431 55.0245 45.24 54.8547C45.2339 53.8893 45.2339 52.924 45.24 51.9586C45.24 51.8266 45.2001 51.726 45.1109 51.6379C44.911 51.4398 44.7142 51.2354 44.5204 51.031C44.4159 50.921 44.2867 50.877 44.1391 50.877C42.9797 50.877 41.8203 50.877 40.6609 50.877C40.4734 50.877 40.4272 50.9241 40.4272 51.1159C40.4272 53.6567 40.4272 56.1974 40.4272 58.7381C40.4272 58.9173 40.4764 58.9677 40.6548 58.9677C41.0515 58.9677 41.4482 58.9677 41.8419 58.9677C42.0448 58.9677 42.091 58.9205 42.091 58.713C42.091 57.8671 42.091 57.0212 42.091 56.1754V55.9741C42.2293 55.9741 42.3462 55.9804 42.4631 55.9741C42.5738 55.9647 42.6261 56.0056 42.666 56.1125C43.0043 56.9898 43.3518 57.864 43.6962 58.7413C43.7731 58.9331 43.8254 58.9708 44.0253 58.9708C44.4866 58.9708 44.9448 58.9708 45.4061 58.9708C45.6244 58.9708 45.6521 58.9299 45.5722 58.7255C45.2154 57.8231 44.8587 56.9206 44.4989 56.0182C44.4589 55.9175 44.4712 55.8578 44.5481 55.7855C44.7265 55.6157 44.8925 55.4301 45.074 55.2635H45.0709ZM43.5732 53.9145C43.5732 54.0906 43.3795 54.2887 43.2104 54.2887C42.8444 54.2887 42.4784 54.2887 42.0971 54.2887V52.5875C42.1432 52.5844 42.1832 52.5781 42.2263 52.5781C42.5492 52.5781 42.8721 52.5781 43.195 52.5781C43.3887 52.5781 43.5732 52.7731 43.5763 52.968C43.5763 53.2825 43.5763 53.5969 43.5763 53.9114L43.5732 53.9145Z" fill="black"/>
<path d="M52.0241 54.3141C51.3783 54.3141 50.7325 54.3141 50.0867 54.3141C49.9329 54.3141 49.813 54.3612 49.7084 54.4744C49.5208 54.6725 49.3178 54.8549 49.1426 55.0625C49.0657 55.1536 49.0042 55.2889 49.0042 55.4052C48.9919 56.5152 48.998 57.6283 48.998 58.7383C48.998 58.9333 49.0349 58.971 49.2317 58.971C50.754 58.971 52.2763 58.971 53.7985 58.971C53.983 58.971 54.0261 58.9301 54.0261 58.7446C54.0261 58.339 54.0261 57.9333 54.0261 57.5277C54.0261 57.3045 53.9861 57.2667 53.7678 57.2667C52.7929 57.2667 51.8211 57.2667 50.8463 57.2667H50.6648V56.4083C50.6648 56.2039 50.8616 55.9995 51.0615 55.9995C51.7012 55.9995 52.3439 56.0026 52.9836 55.9964C53.0727 55.9964 53.1835 55.9618 53.248 55.902C53.4848 55.6851 53.7124 55.4555 53.9277 55.2197C53.9861 55.1568 54.023 55.053 54.023 54.965C54.0292 53.9587 54.0322 52.9525 54.023 51.9463C54.023 51.8394 53.9646 51.7136 53.8938 51.6287C53.7155 51.418 53.5094 51.2293 53.3188 51.0281C53.2173 50.918 53.0943 50.874 52.9528 50.874C51.9995 50.874 51.0431 50.874 50.0897 50.874C49.9452 50.874 49.8222 50.9212 49.7207 51.0281C49.53 51.2293 49.3332 51.4243 49.1395 51.6224C49.0441 51.7199 48.998 51.8299 49.0011 51.9714C49.0072 52.3456 49.0011 52.723 49.0011 53.0972C49.0011 53.2764 49.0441 53.3204 49.2133 53.3204C49.6254 53.3204 50.0344 53.3204 50.4465 53.3204C50.6125 53.3204 50.6617 53.267 50.6648 53.094C50.6648 52.9242 50.6648 52.7576 50.6648 52.5689C51.1169 52.5689 51.5413 52.5689 51.9657 52.5689C52.1655 52.5689 52.3624 52.767 52.3624 52.9777C52.3624 53.3078 52.3624 53.638 52.3624 53.9682C52.3624 54.1757 52.2301 54.3078 52.0241 54.3078V54.3141Z" fill="black"/>
<path d="M30.3803 52.581C31.1676 52.581 31.9548 52.581 32.7421 52.581C32.9297 52.581 32.9666 52.5433 32.9666 52.3546C32.9666 51.9396 32.9666 51.5245 32.9666 51.1094C32.9666 50.9302 32.9174 50.8799 32.739 50.8799C31.4074 50.8799 30.0789 50.8799 28.7473 50.8799C28.5751 50.8799 28.5321 50.927 28.5321 51.1031C28.5321 53.6502 28.5321 56.194 28.5321 58.741C28.5321 58.9297 28.572 58.9706 28.7566 58.9706C30.082 58.9706 31.4074 58.9706 32.7329 58.9706C32.9297 58.9706 32.9697 58.9297 32.9697 58.7222C32.9697 58.3228 32.9697 57.9235 32.9697 57.521C32.9697 57.3072 32.9297 57.2694 32.7206 57.2694C31.9395 57.2694 31.1553 57.2694 30.3711 57.2694H30.2019V55.7569H30.3803C30.9615 55.7569 31.5458 55.7569 32.1271 55.7569C32.3116 55.7569 32.3516 55.7161 32.3516 55.5274C32.3516 55.1123 32.3516 54.6973 32.3516 54.2822C32.3516 54.0904 32.3147 54.0558 32.1271 54.0526C31.5397 54.0526 30.9523 54.0526 30.3649 54.0526H30.1989V52.5779H30.3742L30.3803 52.581Z" fill="black"/>
<path d="M37.5457 51.1096C37.4811 50.8895 37.4657 50.877 37.2382 50.877H36.1372C35.9343 50.877 35.9035 50.899 35.8481 51.0939C35.1132 53.6284 34.3812 56.1659 33.6493 58.7035C33.5878 58.9205 33.6247 58.9677 33.8523 58.9677C34.2336 58.9677 34.615 58.9677 34.9963 58.9677C35.1931 58.9677 35.2577 58.9173 35.31 58.7255C35.3746 58.474 35.4422 58.2256 35.5037 57.974C35.5222 57.8923 35.5591 57.8608 35.6452 57.8608C36.3494 57.864 37.0537 57.864 37.7579 57.8608C37.8501 57.8608 37.8871 57.8923 37.9086 57.9803C37.9639 58.2287 38.0285 58.474 38.09 58.7192C38.1392 58.9142 38.2038 58.9645 38.3975 58.9645C38.5821 58.9645 38.7697 58.9645 38.9542 58.9645C39.1602 58.9645 39.3663 58.9645 39.5692 58.9645C39.7599 58.9645 39.8029 58.9016 39.7476 58.713C39.3601 57.3734 38.9726 56.0339 38.5851 54.6943C38.2376 53.4963 37.8932 52.3014 37.5457 51.1065V51.1096ZM35.9466 56.2949C36.1956 55.3484 36.4417 54.4145 36.6877 53.4774C36.7 53.4774 36.7092 53.4774 36.7184 53.4806C36.9645 54.4145 37.2105 55.3484 37.4565 56.2949H35.9435H35.9466Z" fill="black"/>
<path d="M25.2261 51.1377C25.2261 50.9082 25.1985 50.8799 24.9709 50.8799C24.5834 50.8799 24.199 50.8799 23.8115 50.8799C23.5963 50.8799 23.5624 50.9145 23.5624 51.1314V58.7096C23.5624 58.936 23.5993 58.9737 23.8146 58.9737C25.0478 58.9737 26.281 58.9737 27.5142 58.9737C27.7079 58.9737 27.7571 58.9234 27.7571 58.7253C27.7571 58.326 27.7571 57.9266 27.7571 57.5241C27.7571 57.3229 27.7048 57.2694 27.5018 57.2694C26.8653 57.2694 26.2318 57.2694 25.5952 57.2694H25.2261V51.1377Z" fill="black"/>
<path d="M56.4094 57.2661C55.9943 57.2692 55.5791 57.2661 55.1609 57.2661C55.0071 57.2661 54.9579 57.3164 54.9579 57.4704C54.9579 57.6843 54.9579 57.9012 54.9579 58.1151C54.9579 58.3289 54.9579 58.5553 54.9579 58.7754C54.9579 58.9075 55.0163 58.9672 55.1424 58.9672C55.5668 58.9672 55.9943 58.9672 56.4186 58.9672C56.5447 58.9672 56.6093 58.9138 56.6093 58.7785C56.6093 58.3383 56.6093 57.8981 56.6093 57.4579C56.6093 57.3195 56.5478 57.2598 56.4094 57.2598V57.2661Z" fill="black"/>
<path d="M45.3876 31.0767V36.5135C45.5414 36.3814 45.5599 36.2399 45.5568 36.089C45.5568 34.3281 45.5568 32.5703 45.5568 30.8094C45.5568 30.7591 45.5506 30.7088 45.5475 30.6396C45.3846 30.7686 45.3846 30.9258 45.3846 31.0799L45.3876 31.0767Z" fill="black"/>
<path d="M42.5276 33.2647C42.2539 32.466 41.9802 31.6642 41.7035 30.8655C41.6604 30.7428 41.6143 30.6202 41.4328 30.6045C41.9956 32.249 42.5522 33.8779 43.1212 35.5444C43.2011 35.3338 43.1827 35.1765 43.1273 35.0162C42.9244 34.4344 42.7275 33.8496 42.5276 33.2647Z" fill="black"/>
<path d="M25.629 36.3088C25.629 36.3559 25.6352 36.4 25.6413 36.466C25.7797 36.3402 25.7797 36.1924 25.7828 36.0509C25.7889 35.5541 25.7889 35.0604 25.7889 34.5667C25.7889 34.312 25.6967 34.0856 25.4906 33.9473C25.2846 33.8089 25.0632 33.6863 24.8356 33.5919C24.5127 33.4567 24.1744 33.353 23.8454 33.2303C23.5901 33.136 23.4609 32.9316 23.424 32.6675C23.4056 32.526 23.3994 32.3782 23.3994 32.2335C23.3994 31.743 23.3994 31.2525 23.3994 30.7619C23.3994 30.7148 23.3933 30.6676 23.3902 30.6173C23.3718 30.611 23.3502 30.6079 23.3318 30.6016C23.3072 30.677 23.261 30.7494 23.261 30.8248C23.2549 31.46 23.2518 32.0952 23.261 32.7304C23.2672 32.9976 23.3964 33.2083 23.6516 33.3152C23.8269 33.3876 24.0114 33.441 24.1867 33.5133C24.5188 33.6485 24.854 33.768 25.1708 33.9316C25.4906 34.0982 25.6413 34.3875 25.6321 34.768C25.6198 35.2837 25.6321 35.7962 25.6321 36.3119L25.629 36.3088Z" fill="black"/>
<path d="M56.2034 35.2523C55.7329 34.3813 55.2685 33.5103 54.798 32.6393C54.4628 32.0135 54.1245 31.3878 53.7801 30.7683C53.7339 30.6834 53.6386 30.6268 53.5648 30.5576C53.5463 30.5733 53.5279 30.5922 53.5094 30.6079C54.4382 32.3437 55.3669 34.0763 56.311 35.8372C56.3602 35.6013 56.2956 35.4252 56.2003 35.2523H56.2034Z" fill="black"/>
<path d="M49.5731 31.6387C49.3363 32.5726 49.1087 33.4688 48.875 34.3806H50.2835C50.0467 33.4625 49.813 32.5694 49.5731 31.6387Z" fill="black"/>
<path d="M51.083 36.4157C51.083 36.2553 51.1169 36.0855 51.0769 35.9346C50.7232 34.551 50.3573 33.1674 49.9975 31.787C49.9175 31.4789 49.8376 31.1707 49.7515 30.8626C49.7176 30.7431 49.6715 30.6267 49.5024 30.6016C50.0159 32.5574 50.5233 34.4913 51.0308 36.4251C51.0492 36.4251 51.0646 36.422 51.083 36.4188V36.4157Z" fill="black"/>
<path d="M32.7175 30.74C32.7175 30.7054 32.7083 30.6709 32.6991 30.6143C32.5514 30.7432 32.533 30.891 32.533 31.0513C32.533 32.8091 32.533 34.5637 32.533 36.3215V36.5038C32.6929 36.3655 32.7175 36.2114 32.7175 36.0573C32.7175 34.287 32.7175 32.5135 32.7175 30.7432V30.74Z" fill="black"/>
<path d="M37.0352 30.7776C37.0352 30.7335 37.0291 30.6895 37.0229 30.6172C36.863 30.7461 36.8507 30.897 36.8507 31.0543C36.8507 32.8183 36.8507 34.5824 36.8507 36.3495V36.5036C37.0229 36.3653 37.0383 36.1955 37.0383 36.0288C37.0383 34.2805 37.0383 32.529 37.0383 30.7807L37.0352 30.7776Z" fill="black"/>
<path d="M28.4706 30.756C28.4706 30.7151 28.4644 30.6742 28.4583 30.6113C28.3199 30.7371 28.3014 30.8723 28.3014 31.0233C28.3014 32.7842 28.3014 34.5451 28.3014 36.306V36.4915C28.4521 36.3594 28.4706 36.2211 28.4706 36.0701C28.4706 34.2998 28.4706 32.5263 28.4706 30.756Z" fill="black"/>
</g>
<defs>
<filter id="filter0_d_1265_631" x="0" y="0" width="80.6979" height="80.709" filterUnits="userSpaceOnUse" color-interpolation-filters="sRGB">
<feFlood flood-opacity="0" result="BackgroundImageFix"/>
<feColorMatrix in="SourceAlpha" type="matrix" values="0 0 0 0 0 0 0 0 0 0 0 0 0 0 0 0 0 0 127 0" result="hardAlpha"/>
<feOffset dy="1"/>
<feGaussianBlur stdDeviation="1"/>
<feColorMatrix type="matrix" values="0 0 0 0 0 0 0 0 0 0 0 0 0 0 0 0 0 0 0.5 0"/>
<feBlend mode="normal" in2="BackgroundImageFix" result="effect1_dropShadow_1265_631"/>
<feBlend mode="normal" in="SourceGraphic" in2="effect1_dropShadow_1265_631" result="shape"/>
</filter>
<clipPath id="clip0_1265_631">
<rect width="45.2742" height="51.5189" fill="white" transform="translate(17.6118 13.4893)"/>
</clipPath>
</defs>
</svg>
