
<svg version="1.1" id="Layer_1" xmlns="http://www.w3.org/2000/svg" xmlns:xlink="http://www.w3.org/1999/xlink" x="0px" y="0px"
	 viewBox="0 0 61 61" style="enable-background:new 0 0 61 61;" xml:space="preserve">
<style type="text/css">
	.st0{fill:#FFFFFF;}
</style>
<g>
	<path class="st0" d="M30.39,58.52c15.95,0,28.88-12.93,28.88-28.88c0-15.95-12.93-28.88-28.88-28.88
		c-15.95,0-28.88,12.93-28.88,28.88C1.51,45.59,14.44,58.52,30.39,58.52z"/>
</g>
<g>
	<g>
		<g>
			<path d="M17.92,38.39l2.19-2.19h3.21l0.73-0.73v-7.96l-0.73-0.73h-1.1l-0.73,0.73v3.36h-3.5v-4.89l2.19-2.19h5.18l2.19,2.19v11.1
				l-2.19,2.19h-3.21l-0.73,0.73v8.54h5.99v2.99h-9.49V38.39z"/>
			<path d="M28.7,51.53v-4.02h3.65v4.02H28.7z"/>
			<path d="M43.47,49.34l-2.19,2.19h-5.73l-2.19-2.19V25.97l2.19-2.19h5.73l2.19,2.19L43.47,49.34L43.47,49.34z M37.59,26.78
				l-0.73,0.73v20.3l0.73,0.73h1.64l0.73-0.73v-20.3l-0.73-0.73H37.59z"/>
		</g>
		<g>
			<path d="M16.28,13.1c0-0.04,0-0.07,0.01-0.1c0.01-0.07,0.05-0.14,0.1-0.19l0.62-0.62c0.07-0.07,0.14-0.1,0.19-0.11
				c0.03-0.01,0.06-0.01,0.1-0.01h2.87c0.04,0,0.07,0,0.1,0.01c0.05,0.01,0.11,0.04,0.19,0.11l0.62,0.62
				c0.06,0.06,0.1,0.13,0.11,0.2c0.01,0.03,0.01,0.06,0.01,0.09h-0.01l0.01,0.02v1.16c0,0.04-0.02,0.07-0.05,0.1
				s-0.07,0.05-0.1,0.05h-1.32c-0.04,0-0.08-0.02-0.11-0.05c-0.03-0.03-0.04-0.07-0.04-0.1V14v-0.02c0-0.01,0-0.01-0.01-0.02
				c-0.01-0.01-0.01-0.02-0.02-0.03l-0.19-0.19c-0.02-0.02-0.05-0.03-0.08-0.03h-1.07c-0.02,0-0.05,0.01-0.08,0.03l-0.18,0.19
				c-0.03,0.03-0.04,0.05-0.04,0.06c-0.01,0.01-0.01,0.01,0,0.02v3.95c0.01,0.01,0.01,0.03,0.02,0.04c0,0.01,0.01,0.02,0.03,0.04
				l0.15,0.15h1.28l0.15-0.15c0.02-0.02,0.03-0.05,0.03-0.08v-0.33c0-0.04,0.01-0.07,0.04-0.1c0.03-0.03,0.07-0.05,0.11-0.05h1.32
				c0.04,0,0.07,0.02,0.1,0.05s0.05,0.07,0.05,0.1v1.25c-0.01,0.03-0.01,0.06-0.02,0.08c-0.01,0.02-0.04,0.06-0.1,0.12l-0.62,0.62
				c-0.06,0.06-0.12,0.1-0.19,0.11c-0.03,0.01-0.06,0.01-0.1,0.01H17.3c-0.04,0-0.07,0-0.1-0.01c-0.07-0.01-0.14-0.05-0.19-0.11
				l-0.62-0.62c-0.05-0.05-0.09-0.11-0.1-0.19c-0.01-0.03-0.01-0.06-0.01-0.1L16.28,13.1L16.28,13.1z"/>
			<path d="M26.87,18.24c0.03,0.03,0.05,0.07,0.05,0.1v1.32c0,0.04-0.02,0.08-0.05,0.11c-0.03,0.03-0.07,0.04-0.12,0.04h-4.42
				c-0.04,0-0.08-0.01-0.12-0.04s-0.05-0.07-0.05-0.11v-7.42h0.01c0.01-0.08,0.07-0.12,0.15-0.12h1.31c0.09,0,0.14,0.04,0.15,0.12
				v5.95h2.96C26.8,18.19,26.84,18.21,26.87,18.24z"/>
			<path d="M29.39,15.14h1.96c0.1,0,0.15,0.05,0.15,0.15v1.32c0,0.1-0.05,0.15-0.15,0.15h-1.96v1.43h2.56c0.04,0,0.07,0.01,0.1,0.04
				c0.03,0.03,0.05,0.07,0.05,0.11v1.32c0,0.04-0.02,0.08-0.05,0.11c-0.03,0.03-0.07,0.04-0.1,0.04h-4.03
				c-0.1,0-0.15-0.05-0.15-0.15v-7.42c0-0.1,0.05-0.15,0.15-0.15h4.03c0.04,0,0.07,0.01,0.1,0.04c0.03,0.03,0.05,0.07,0.05,0.11
				v1.32c0,0.04-0.02,0.08-0.05,0.11c-0.03,0.03-0.07,0.04-0.1,0.04h-2.56V15.14z"/>
			<path d="M36.62,12.25c0.37,1.24,0.73,2.47,1.1,3.71s0.73,2.47,1.1,3.71c0.01,0.04,0,0.07-0.04,0.1
				c-0.04,0.03-0.08,0.05-0.13,0.05h-1.26c-0.04,0-0.09-0.02-0.12-0.05c-0.04-0.03-0.06-0.07-0.08-0.1l-0.27-0.9H34.7l-0.27,0.9
				c-0.01,0.04-0.04,0.07-0.08,0.1c-0.04,0.03-0.08,0.05-0.12,0.05h-1.26c-0.04,0-0.09-0.02-0.13-0.05
				c-0.04-0.03-0.05-0.07-0.04-0.1l2.19-7.41v-0.01c0.04-0.1,0.1-0.15,0.15-0.15h0.49h0.34h0.49c0.07,0,0.12,0.05,0.15,0.15
				L36.62,12.25L36.62,12.25z M36.48,17.27l-0.66-2.27l-0.67,2.27H36.48z"/>
			<path d="M44.35,15.95c0,0.04,0,0.07-0.01,0.1c-0.01,0.03-0.02,0.06-0.03,0.09c-0.01,0.03-0.04,0.06-0.07,0.1l-0.63,0.63
				l-0.03,0.02l1.13,2.78c0.01,0.04,0,0.07-0.04,0.1c-0.04,0.03-0.08,0.05-0.12,0.05h-1.48c-0.04,0-0.09-0.02-0.12-0.05
				c-0.04-0.03-0.06-0.07-0.08-0.1l-1.08-2.69h-0.51v2.69c0,0.04-0.01,0.07-0.04,0.1c-0.03,0.03-0.07,0.05-0.11,0.05h-1.32
				c-0.04,0-0.07-0.02-0.1-0.05s-0.05-0.07-0.05-0.1v-7.42c0-0.04,0.02-0.08,0.05-0.11s0.07-0.04,0.1-0.04h3.52
				c0.03,0,0.06,0,0.09,0.01c0.03,0.01,0.06,0.02,0.09,0.03c0.03,0.01,0.07,0.04,0.1,0.07l0.63,0.63c0.04,0.04,0.06,0.07,0.07,0.11
				c0.01,0.04,0.02,0.07,0.03,0.1c0.01,0.04,0.01,0.07,0.01,0.1L44.35,15.95L44.35,15.95z M41.28,15.35h1.16
				c0.03,0,0.06-0.01,0.08-0.03l0.18-0.18c0.02-0.02,0.03-0.04,0.03-0.06v-0.03v-1.04v-0.02c0-0.02-0.01-0.04-0.03-0.07l-0.18-0.18
				c-0.02-0.02-0.04-0.03-0.07-0.03h-0.02h-1.15V15.35z"/>
		</g>
	</g>
	<g>
		<path d="M31.51,6.83c0.02,0,0.03,0,0.05,0.01c-0.06,0.1-0.15,0.18-0.25,0.23c0.05,0.01,0.09,0.02,0.12,0.03
			c0.07,0.02,0.12,0.09,0.1,0.16c0,0.03-0.01,0.05-0.05,0.09h2.28c0,0.04-0.01,0.08-0.01,0.12c-0.01,0.14-0.03,0.28-0.04,0.42
			c-0.01,0.14-0.03,0.28-0.04,0.42c-0.01,0.12-0.02,0.24-0.03,0.36c-0.01,0.14-0.03,0.28-0.04,0.42c-0.01,0.12-0.02,0.24-0.03,0.36
			c0,0.04-0.01,0.07-0.01,0.11c0,0.01-0.01,0.02-0.02,0.02c-0.21,0.03-0.41,0.06-0.62,0.09c-0.26,0.04-0.52,0.08-0.78,0.12
			c-0.2,0.03-0.4,0.06-0.6,0.09c-0.17,0.03-0.34,0.05-0.52,0.08c-0.17,0.03-0.34,0.05-0.51,0.08c-0.04,0.01-0.08-0.01-0.13-0.01
			C30.2,10,30.02,9.97,29.84,9.94c-0.16-0.02-0.33-0.05-0.49-0.07C29.18,9.84,29,9.82,28.83,9.79c-0.16-0.02-0.32-0.05-0.48-0.07
			c-0.15-0.02-0.31-0.05-0.46-0.07c-0.14-0.02-0.28-0.04-0.42-0.06c-0.01,0-0.01,0-0.02-0.01c-0.07-0.74-0.14-1.48-0.21-2.22h0.02
			c0.39,0,0.78,0,1.16,0c0.4,0,0.8,0,1.2,0c0.02,0,0.04-0.01,0.06-0.02c0.05-0.03,0.1-0.07,0.16-0.1c0.04-0.02,0.05-0.05,0.06-0.08
			c-0.03,0-0.06,0-0.08,0c-0.06-0.01-0.12-0.03-0.15-0.09c0-0.01-0.01-0.01-0.02-0.01c-0.09-0.05-0.16-0.12-0.22-0.2
			c0,0,0-0.01-0.01-0.01c0.02,0,0.04-0.01,0.05-0.01c-0.03-0.06-0.06-0.11-0.09-0.17c0.03-0.01,0.06-0.01,0.08-0.01
			c-0.05-0.07-0.09-0.14-0.12-0.22c0.08,0,0.15,0.01,0.22,0.02c0-0.02-0.01-0.03-0.01-0.05c0.1-0.01,0.2,0.01,0.29,0.04
			c-0.03-0.07-0.05-0.13-0.05-0.2c0.02,0,0.03,0,0.05,0c-0.01-0.05-0.02-0.11-0.03-0.16c0.07,0,0.14,0.02,0.2,0.05
			c0-0.02,0-0.03,0-0.05c0.04,0.01,0.07,0.01,0.11,0.02c0.02-0.1,0.04-0.19,0.08-0.29c0.01,0.01,0.02,0.01,0.03,0.02
			c0.02-0.06,0.05-0.12,0.07-0.19c0,0,0.01,0,0.01,0c0.01,0.01,0.02,0.02,0.03,0.04c0.05-0.07,0.09-0.14,0.14-0.21
			c0.05,0.07,0.09,0.14,0.13,0.21c0.01-0.01,0.02-0.02,0.03-0.04c0.04,0.06,0.06,0.13,0.08,0.19c0.01-0.01,0.02-0.01,0.04-0.02
			c0.04,0.09,0.07,0.19,0.08,0.29c0.04-0.01,0.07-0.01,0.11-0.02c0,0.01,0,0.03,0,0.04c0.07-0.02,0.13-0.03,0.2-0.05
			c0,0,0.01,0.01,0.01,0.01c-0.01,0.05-0.02,0.1-0.03,0.16c0.01,0,0.03,0,0.05,0c0,0.07-0.02,0.13-0.05,0.19
			c0.05-0.01,0.1-0.02,0.14-0.03s0.1-0.01,0.15-0.01c0,0.02-0.01,0.03-0.01,0.05c0.07-0.01,0.15-0.02,0.22-0.02
			c-0.03,0.09-0.07,0.16-0.13,0.23c0.03,0.01,0.05,0.01,0.08,0.02C31.57,6.71,31.54,6.77,31.51,6.83 M29.78,6.97
			c0-0.03,0.01-0.05,0.04-0.05c0.01,0,0.02-0.01,0.02-0.01c0.02-0.03,0.05-0.05,0.09-0.06c0.01,0,0.02-0.01,0.02-0.02
			c0.02-0.04,0.03-0.05,0.07-0.06c0.02,0,0.03,0,0.04,0.02c0.01,0.02,0,0.03-0.01,0.04c0-0.02,0.01-0.03-0.01-0.04
			c-0.03-0.01-0.05,0.01-0.05,0.04c0.03,0.02,0.06,0.03,0.08,0.05c0.03,0.03,0.03,0.07,0.02,0.11c-0.02,0.05,0,0.09,0.05,0.11
			c0,0,0.01,0,0.01,0.01c-0.02,0-0.04,0-0.06,0C30.04,7.09,30,7.11,29.97,7.14c-0.01,0.01-0.01,0.02-0.02,0.02h0.4
			c-0.01-0.08-0.03-0.15-0.09-0.21c0.05,0.02,0.09,0.06,0.11,0.1c0,0.01,0.01,0.01,0.01,0.01c0.04,0,0.07,0,0.11-0.01
			c0.02,0,0.02-0.01,0.02-0.03c-0.03-0.08-0.04-0.17-0.02-0.25c0-0.02,0.01-0.03,0.01-0.05c-0.03-0.02-0.06-0.02-0.1-0.02
			c-0.03,0-0.06,0-0.09,0.01c-0.03,0.01-0.06,0.01-0.1,0.02c0.08-0.06,0.2-0.1,0.31-0.07c0.01,0,0.02,0,0.02-0.01
			c0.06-0.05,0.12-0.06,0.19-0.05c-0.01,0-0.02,0-0.03,0.01c-0.09,0.01-0.15,0.06-0.17,0.15c-0.02,0.07-0.01,0.14,0.01,0.21
			c0.01,0.04,0.03,0.08,0.05,0.12c-0.07,0.03-0.15,0.02-0.23,0.01c0.01,0.03,0.01,0.05,0.02,0.07c0.01,0,0.01,0,0.01,0
			c0.17,0,0.35,0,0.52,0c0.02,0,0.02-0.01,0.02-0.02c0.02-0.09,0.01-0.17-0.03-0.25c0-0.01-0.01-0.01-0.01-0.02
			c0.01,0,0.01,0.01,0.02,0.02c0.06,0.07,0.09,0.15,0.09,0.24c0,0.03,0.01,0.05,0.03,0.06c0.07,0.03,0.14,0.06,0.21,0.09
			c0.04,0.02,0.08,0.03,0.12,0.03c0.07,0.01,0.12-0.04,0.11-0.1c-0.01-0.05-0.04-0.07-0.09-0.08c-0.1-0.03-0.19-0.06-0.29-0.1
			c-0.02-0.01-0.03-0.02-0.03-0.04c-0.03-0.08-0.06-0.15-0.1-0.22c-0.06-0.11-0.14-0.2-0.24-0.26c-0.13-0.07-0.27-0.08-0.41-0.04
			c-0.14,0.03-0.25,0.11-0.35,0.2c-0.02,0.02-0.05,0.03-0.08,0.04c-0.02,0.01-0.05,0.02-0.07,0.04c-0.06,0.07-0.1,0.15-0.11,0.24
			c0,0.03,0,0.05,0.03,0.07c0.01-0.03,0.02-0.02,0.04-0.02c-0.01,0.01-0.01,0.01-0.01,0.02c0,0.01,0,0.02,0,0.02
			c0.03,0.01,0.06,0.01,0.09,0.01c0.01,0,0.02-0.02,0.03-0.03c-0.01-0.01-0.02-0.01-0.03-0.02c0.02,0,0.04,0.01,0.06,0.01
			c-0.01-0.01-0.01-0.02-0.02-0.02c0.01,0,0.01,0,0.02,0c0.06,0.02,0.12-0.02,0.12-0.09c0-0.04-0.02-0.07-0.06-0.09
			c-0.04-0.02-0.08-0.02-0.11,0.02C29.86,6.92,29.83,6.96,29.78,6.97C29.79,6.96,29.78,6.96,29.78,6.97 M30.77,9.04
			C30.77,9.04,30.77,9.04,30.77,9.04c-0.04-0.03-0.05-0.07-0.06-0.11c0-0.02-0.01-0.05-0.01-0.07c0-0.19,0-0.38,0-0.57V8.24
			c0,0,0,0,0,0c0.1,0.28,0.19,0.56,0.29,0.84c0,0,0,0,0.01,0c0.08-0.28,0.16-0.55,0.25-0.83c0,0.23,0,0.45,0,0.67
			c0,0.03-0.01,0.06-0.02,0.09c0,0.01-0.02,0.02-0.03,0.04c0.03,0.01,0.26,0.01,0.27,0C31.47,9.02,31.45,9,31.45,8.98
			c-0.01-0.02-0.01-0.05-0.01-0.08c0-0.27,0-0.54,0-0.81c0-0.05,0.01-0.1,0.06-0.14c-0.01,0-0.02,0-0.03,0c-0.07,0-0.14,0-0.21,0
			c-0.02,0-0.02,0.01-0.03,0.02c-0.06,0.19-0.12,0.38-0.17,0.58c-0.01,0.03-0.02,0.07-0.03,0.1c0-0.01-0.01-0.01-0.01-0.02
			c-0.07-0.22-0.14-0.44-0.21-0.66c-0.01-0.02-0.01-0.03-0.04-0.03c-0.07,0-0.13,0-0.2,0c-0.01,0-0.02,0-0.02,0c0,0,0,0,0,0.01
			c0.05,0.02,0.05,0.07,0.06,0.11c0,0.02,0,0.04,0,0.06c0,0.24,0,0.49,0,0.73c0,0.06,0,0.13-0.06,0.18L30.77,9.04L30.77,9.04z
			 M28.46,7.95c-0.01,0-0.01,0-0.02,0c-0.13,0-0.25-0.01-0.38-0.01c-0.05,0-0.1,0.01-0.15,0.02c-0.05,0.01-0.08,0.05-0.08,0.1
			c0,0.1,0,0.21,0,0.31c0,0.06,0.03,0.11,0.09,0.13c0.03,0.01,0.07,0.02,0.1,0.03c0.04,0.02,0.09,0.03,0.13,0.06
			c0.03,0.01,0.05,0.04,0.05,0.08c0,0.08,0,0.16,0,0.24c0,0.02-0.01,0.05-0.03,0.06C28.1,9,28.02,8.96,28.02,8.89
			c0-0.07,0-0.14,0-0.21c0-0.02,0-0.03-0.02-0.03c-0.02,0-0.04-0.01-0.07-0.01c-0.03-0.01-0.06-0.01-0.1-0.02v0.03
			c0,0.08,0,0.15,0,0.23c0,0.02,0,0.05-0.01,0.07c-0.01,0.03-0.02,0.06-0.03,0.09c0.02,0,0.04,0,0.06,0c0.11,0,0.22,0.01,0.33,0.01
			c0.05,0,0.09-0.01,0.14-0.02c0.07-0.01,0.09-0.05,0.09-0.12c0-0.11,0-0.21,0-0.32c0-0.04-0.02-0.08-0.06-0.1
			c-0.04-0.02-0.08-0.03-0.12-0.05c-0.04-0.02-0.09-0.03-0.13-0.05c-0.04-0.02-0.06-0.06-0.06-0.1c0-0.07,0-0.14,0-0.21
			c0-0.01,0-0.02,0-0.02c0.01-0.03,0.03-0.05,0.08-0.05c0.07,0,0.09,0.02,0.09,0.09c0,0.07,0,0.14,0,0.2c0,0.02,0.01,0.02,0.02,0.02
			c0.02,0,0.04,0.01,0.07,0.01c0.03,0.01,0.07,0.01,0.1,0.02V8.33c0-0.07,0-0.15,0-0.22C28.41,8.06,28.41,8,28.46,7.95 M32.99,7.95
			c0.01,0.02,0.03,0.04,0.04,0.06c0.01,0.03,0.01,0.06,0.01,0.09c0,0.17,0,0.34,0,0.51v0.02c-0.01-0.01-0.01-0.01-0.02-0.02
			c-0.12-0.22-0.23-0.43-0.34-0.65c-0.01-0.02-0.02-0.03-0.05-0.03c-0.06,0-0.12,0-0.17,0c-0.01,0-0.02,0-0.02,0
			c0,0.01,0,0.01,0,0.01c0.06,0.03,0.09,0.09,0.09,0.16c0,0.26,0,0.53,0,0.79c0,0.05-0.01,0.09-0.05,0.13c0,0,0,0,0,0.01h0.22
			c0,0,0,0,0-0.01c-0.04-0.02-0.05-0.06-0.06-0.1c0-0.02,0-0.05,0-0.07c0-0.18,0-0.36,0-0.53c0-0.01,0-0.03,0-0.04c0,0,0,0,0.01,0
			c0.02,0.04,0.05,0.09,0.07,0.13c0.1,0.19,0.2,0.37,0.3,0.56c0.03,0.05,0.06,0.07,0.11,0.06c0.03,0,0.03,0,0.03-0.03
			c0-0.29,0-0.58,0-0.87c0-0.03,0-0.06,0.01-0.09c0-0.04,0.01-0.07,0.05-0.1c0,0,0,0,0,0L32.99,7.95L32.99,7.95z M32.4,9.04
			c-0.06-0.06-0.08-0.13-0.1-0.2c-0.01-0.04-0.02-0.07-0.03-0.11c-0.07-0.25-0.14-0.51-0.21-0.76c0-0.02-0.01-0.02-0.03-0.02
			c-0.03,0-0.07,0-0.1,0c-0.02,0-0.03,0.01-0.04,0.03c-0.08,0.3-0.16,0.59-0.24,0.89C31.65,8.91,31.63,8.96,31.61,9
			c-0.01,0.01-0.02,0.02-0.03,0.04c0.03,0.01,0.21,0.01,0.21,0C31.78,9.02,31.76,9,31.76,8.98c-0.01-0.02,0-0.04,0-0.06
			c0.01-0.05,0.02-0.1,0.04-0.15c0-0.01,0.01-0.02,0.02-0.02c0.08,0,0.16,0,0.25,0c0.02,0,0.02,0.01,0.02,0.02
			c0.01,0.05,0.02,0.09,0.03,0.14c0.01,0.05,0.02,0.09-0.03,0.13L32.4,9.04L32.4,9.04z M29.21,7.95
			C29.21,7.95,29.21,7.96,29.21,7.95c0.03,0.03,0.05,0.06,0.05,0.1c0,0.02,0.01,0.05,0.01,0.07c0,0.25,0,0.49,0,0.74
			c0,0.06,0,0.13-0.06,0.18c0.01,0,0.02,0,0.03,0c0.14,0,0.28,0,0.42,0c0.02,0,0.04,0,0.06,0c0.02,0,0.02-0.01,0.02-0.02
			c0-0.02,0-0.04,0.01-0.06c0.01-0.06,0.01-0.12,0.02-0.19c0-0.01,0-0.02,0-0.02l-0.01,0c0,0.01-0.01,0.01-0.01,0.02
			c-0.01,0.02-0.01,0.04-0.02,0.06c-0.03,0.06-0.07,0.09-0.13,0.09c-0.03,0-0.07,0-0.1,0h-0.05c0-0.01,0-0.01,0-0.01
			c0-0.11,0-0.23,0-0.34c0-0.01,0.01-0.02,0.02-0.01c0.04,0,0.07,0,0.11,0c0.04,0,0.06,0.02,0.07,0.06c0,0.01,0,0.01,0.01,0.02
			c0,0,0,0,0.01,0V8.35c0,0,0,0-0.01,0c0,0-0.01,0.01-0.01,0.01c-0.01,0.05-0.04,0.06-0.08,0.06c-0.03,0-0.07,0-0.1,0
			c-0.02,0-0.02-0.01-0.02-0.02c0-0.1,0-0.2,0-0.31c0-0.02,0.01-0.02,0.02-0.02c0.04,0,0.09,0,0.13,0c0.04,0,0.07,0.02,0.09,0.05
			c0.01,0.02,0.02,0.05,0.03,0.07c0,0.01,0.01,0.02,0.01,0.03l0.01,0c0-0.01,0-0.01,0-0.02c0-0.08,0-0.16,0-0.24
			c0-0.02-0.01-0.02-0.02-0.02c-0.16,0-0.32,0-0.47,0C29.22,7.95,29.22,7.95,29.21,7.95 M30.32,8.62L30.32,8.62l0.01-0.28
			c-0.01,0-0.01,0.01-0.01,0.01c-0.01,0.05-0.04,0.06-0.08,0.06c-0.03,0-0.07,0-0.1,0c-0.01,0-0.02,0-0.02-0.02c0-0.1,0-0.21,0-0.31
			c0-0.02,0.01-0.02,0.02-0.02c0.04,0,0.09,0,0.13,0c0.03,0,0.06,0.01,0.08,0.04c0.02,0.03,0.02,0.06,0.04,0.09
			c0,0.01,0,0.01,0.01,0.02c0,0,0.01,0,0.01,0c0-0.01,0-0.01,0-0.02c0-0.08,0-0.15,0-0.23c0-0.02-0.01-0.02-0.02-0.02
			c-0.16,0-0.31,0-0.47,0c-0.01,0-0.01,0-0.02,0c0.04,0.03,0.05,0.06,0.05,0.1c0,0.02,0.01,0.04,0.01,0.07c0,0.25,0,0.5,0,0.75
			c0,0.06,0,0.12-0.06,0.17c0.02,0,0.03,0,0.04,0c0.15,0,0.3,0,0.45,0c0.01,0,0.02,0,0.04,0c0.01,0,0.02-0.01,0.02-0.02
			c0.01-0.09,0.02-0.18,0.03-0.26c0-0.01,0-0.01,0-0.02c0,0,0,0-0.01,0c0,0.01-0.01,0.01-0.01,0.02c-0.01,0.02-0.01,0.04-0.02,0.06
			c-0.02,0.04-0.04,0.09-0.1,0.09c-0.06,0.01-0.13,0-0.2,0c0,0,0,0,0,0c0-0.11,0-0.23,0-0.34c0-0.01,0.01-0.02,0.02-0.02
			c0.04,0,0.07,0,0.11,0c0.04,0,0.06,0.02,0.07,0.06C30.32,8.62,30.32,8.62,30.32,8.62 M28.57,7.95
			C28.56,7.95,28.56,7.96,28.57,7.95C28.59,7.97,28.6,8,28.61,8.03c0,0.02,0.01,0.04,0.01,0.06c0,0.24,0,0.48,0,0.72
			c0,0.02,0,0.03,0,0.05c0,0.06,0,0.13-0.05,0.18c0.01,0,0.02,0,0.03,0c0.11,0,0.21,0,0.32,0c0.05,0,0.11,0,0.16,0
			c0.01,0,0.02,0,0.02-0.02c0.01-0.1,0.02-0.19,0.03-0.29c0-0.01,0-0.01,0-0.02c0,0,0,0-0.01,0c0,0.01-0.01,0.01-0.01,0.02
			c-0.02,0.04-0.03,0.08-0.05,0.12c-0.02,0.03-0.04,0.05-0.08,0.05c-0.06,0-0.12,0-0.18,0c0,0,0,0,0,0c0,0,0-0.01,0-0.01
			c0-0.27,0-0.54,0-0.81c0-0.03,0.01-0.06,0.02-0.09c0.01-0.02,0.02-0.03,0.03-0.05H28.57z M32.92,9.47
			C32.92,9.47,32.92,9.47,32.92,9.47c-0.01,0-0.01,0-0.02,0c-0.11,0.01-0.22,0.03-0.33,0.04c-0.13,0.02-0.26,0.03-0.38,0.05
			c-0.11,0.01-0.23,0.03-0.34,0.04c-0.1,0.01-0.21,0.03-0.31,0.04c-0.09,0.01-0.18,0.02-0.27,0.03c-0.1,0.01-0.21,0.03-0.31,0.04
			c-0.1,0.01-0.2,0.03-0.31,0.04c-0.07,0.01-0.14,0.02-0.21,0.01c-0.1-0.02-0.2-0.03-0.31-0.04c-0.11-0.01-0.22-0.03-0.33-0.04
			c-0.1-0.01-0.2-0.03-0.31-0.04c-0.1-0.01-0.2-0.03-0.3-0.04c-0.11-0.01-0.22-0.03-0.34-0.04c-0.12-0.02-0.25-0.03-0.37-0.05
			c-0.12-0.01-0.23-0.03-0.35-0.04c-0.03,0-0.06-0.01-0.09-0.01c0.03,0.01,0.05,0.01,0.08,0.02c0.14,0.02,0.29,0.05,0.43,0.07
			c0.12,0.02,0.24,0.04,0.36,0.06c0.12,0.02,0.24,0.04,0.36,0.06c0.14,0.02,0.29,0.04,0.43,0.07c0.11,0.02,0.23,0.04,0.34,0.05
			c0.11,0.02,0.22,0.04,0.34,0.05c0.04,0.01,0.08,0.01,0.12,0.01c0.05,0,0.1-0.01,0.16-0.02c0.13-0.02,0.25-0.04,0.38-0.06
			c0.15-0.02,0.31-0.05,0.46-0.07c0.13-0.02,0.27-0.04,0.4-0.06c0.15-0.02,0.29-0.04,0.44-0.07c0.12-0.02,0.23-0.03,0.34-0.05
			C32.76,9.5,32.84,9.48,32.92,9.47 M30.24,6.02C30.24,6.02,30.24,6.02,30.24,6.02c0,0.01,0,0.02,0,0.02
			c0.03,0.12,0.1,0.21,0.22,0.27c0.01,0.01,0.02,0.01,0.02,0.03c0,0.03,0,0.05,0,0.08h0.04c0-0.03,0-0.06,0-0.08
			c0-0.01,0-0.02,0.02-0.03c0.06-0.03,0.12-0.07,0.16-0.13c0.03-0.05,0.06-0.1,0.06-0.16c-0.05,0.11-0.12,0.2-0.24,0.25
			c0-0.06,0-0.11,0-0.16c0-0.02,0-0.03,0.02-0.04c0.06-0.04,0.1-0.09,0.12-0.17c0-0.01,0-0.03,0.01-0.04
			c-0.04,0.07-0.08,0.13-0.14,0.17c-0.01-0.09-0.01-0.19-0.02-0.28c0,0-0.01,0-0.01,0c-0.01,0.09-0.01,0.18-0.01,0.28
			c-0.07-0.04-0.11-0.1-0.14-0.17c0.01,0.09,0.05,0.16,0.12,0.21c0.01,0,0.02,0.01,0.02,0.02c0,0.06,0,0.11,0,0.18
			C30.36,6.21,30.29,6.13,30.24,6.02 M31.13,6.74c0.08-0.09,0.19-0.14,0.28-0.2c0,0,0-0.01,0-0.01c-0.06,0.03-0.12,0.05-0.18,0.08
			c0.01-0.04,0.02-0.07,0.02-0.1c-0.03,0.03-0.04,0.07-0.06,0.11c0,0.01-0.01,0.02-0.02,0.03c-0.05,0.04-0.1,0.08-0.14,0.12
			c0.01,0.01,0.01,0.03,0.02,0.04c0.02-0.05,0.06-0.04,0.09-0.04c0.08,0,0.16-0.01,0.23-0.04C31.3,6.75,31.22,6.76,31.13,6.74
			 M29.85,6.68c-0.01-0.01-0.01-0.01-0.02-0.01c-0.03-0.01-0.04-0.04-0.05-0.06c-0.01-0.03-0.02-0.06-0.05-0.09
			c0.01,0.03,0.01,0.06,0.02,0.1c-0.06-0.03-0.12-0.05-0.18-0.08c0,0,0,0.01,0,0.01c0.07,0.04,0.13,0.08,0.2,0.12
			c-0.06,0.04-0.13,0.06-0.21,0.08C29.67,6.75,29.76,6.72,29.85,6.68 M30.85,6.38C30.85,6.38,30.85,6.38,30.85,6.38
			c0.06-0.07,0.12-0.14,0.19-0.2c-0.12,0.08-0.22,0.17-0.31,0.29c0.01,0.01,0.02,0.01,0.04,0.02c0.01-0.02,0.03-0.04,0.04-0.05
			c0.01-0.01,0.02-0.02,0.03-0.02c0.04,0,0.07-0.01,0.11-0.01c0.02,0,0.04-0.01,0.06-0.02L30.85,6.38L30.85,6.38z M30.25,6.46
			C30.2,6.37,30,6.19,29.95,6.18c0.06,0.06,0.13,0.13,0.19,0.2c0,0,0,0,0,0.01h-0.15c0.05,0.02,0.1,0.04,0.15,0.04
			c0.02,0,0.04,0.01,0.05,0.03C30.22,6.47,30.22,6.47,30.25,6.46 M31.08,7.3c-0.05-0.02-0.1-0.02-0.14-0.05
			c-0.05-0.03-0.11-0.04-0.17-0.03c-0.01,0-0.02,0-0.02,0c0,0-0.01,0-0.01,0c0,0,0,0,0,0.01C30.84,7.28,30.96,7.29,31.08,7.3
			 M30.37,7.22C30.37,7.23,30.37,7.23,30.37,7.22c0.11,0.06,0.23,0.07,0.34,0.08c-0.07-0.02-0.14-0.04-0.2-0.08c0,0-0.01,0-0.01,0
			C30.46,7.22,30.41,7.22,30.37,7.22 M30,7.22C30,7.23,30,7.23,30,7.22c0.11,0.06,0.23,0.07,0.34,0.08
			c-0.07-0.02-0.14-0.04-0.2-0.08c0,0-0.01,0-0.01,0C30.09,7.22,30.05,7.22,30,7.22"/>
		<path d="M31.29,8.95V8.88V8.13c0-0.02,0-0.05,0.02-0.07c0,0.01,0,0.02,0,0.03c0,0.27,0,0.53,0,0.8
			C31.32,8.91,31.31,8.93,31.29,8.95"/>
		<path d="M30.68,8.06c0.03,0,0.04,0.02,0.04,0.04c0.04,0.12,0.09,0.24,0.13,0.36c0.03,0.09,0.06,0.18,0.09,0.26
			c0.01,0.02,0.01,0.05,0,0.08C30.85,8.55,30.77,8.31,30.68,8.06"/>
		<path d="M27.89,8.06c0,0.01,0,0.01,0,0.02c0,0.07,0,0.15,0,0.22c0,0.02,0,0.04,0,0.07c0.01,0.04,0.03,0.07,0.07,0.09
			c0.05,0.02,0.1,0.03,0.15,0.06c0.04,0.01,0.07,0.03,0.1,0.05c0.03,0.02,0.05,0.06,0.05,0.09c0,0.07,0,0.15,0,0.22
			c0,0.02,0,0.04-0.02,0.06c0-0.01,0-0.02,0-0.02c0-0.08,0-0.16,0-0.23c0-0.06-0.02-0.1-0.07-0.13c-0.05-0.02-0.1-0.04-0.15-0.06
			c-0.03-0.01-0.06-0.02-0.08-0.03c-0.04-0.02-0.06-0.05-0.06-0.09c0-0.1,0-0.19,0-0.29c0-0.01,0.01-0.02,0.01-0.03
			C27.88,8.06,27.88,8.06,27.89,8.06"/>
		<path d="M32.56,8.05c0.01,0.01,0.03,0.02,0.03,0.03c0.05,0.09,0.11,0.19,0.16,0.28c0.07,0.13,0.14,0.26,0.22,0.4
			c0.01,0.03,0.02,0.05,0.02,0.09C32.84,8.58,32.69,8.32,32.56,8.05C32.55,8.06,32.55,8.05,32.56,8.05"/>
		<path d="M32.05,8.63h-0.22c0.04-0.14,0.07-0.27,0.11-0.42C31.98,8.36,32.01,8.49,32.05,8.63"/>
		<path d="M31.93,8.06c0.03,0,0.03,0.02,0.04,0.04c0.01,0.05,0.03,0.09,0.04,0.14c0.06,0.21,0.11,0.42,0.17,0.63
			c0.01,0.02,0,0.05,0,0.07c0,0-0.01,0-0.01,0C32.09,8.65,32.01,8.35,31.93,8.06"/>
		<path d="M29.3,8.95V8.92c0-0.27,0-0.53,0-0.8c0-0.02,0-0.05,0.03-0.07c0,0.01,0,0.01,0,0.02c0,0.27,0,0.54,0,0.8
			C29.33,8.91,29.33,8.93,29.3,8.95"/>
		<path d="M30,8.06c0,0.01,0,0.02,0,0.02c0,0.26,0,0.53,0,0.79c0,0.03,0,0.05-0.03,0.07V8.93c0-0.27,0-0.53,0-0.8
			C29.97,8.1,29.97,8.08,30,8.06"/>
		<path d="M28.65,8.95V8.92c0-0.27,0-0.53,0-0.8c0-0.02,0-0.04,0.02-0.06c0,0.01,0,0.02,0,0.02c0,0.27,0,0.54,0,0.8
			C28.67,8.91,28.67,8.93,28.65,8.95"/>
	</g>
</g>
</svg>
